<svg width="48" height="48" viewBox="0 0 48 48" fill="none" xmlns="http://www.w3.org/2000/svg">
<circle cx="23.7961" cy="23.8732" r="23.2339" fill="#111C55" stroke="#273270" stroke-width="0.749479"/>
<path d="M18.1519 16.8585C18.051 16.8615 17.9518 16.8835 17.8602 16.9232C17.7685 16.9628 17.6863 17.0193 17.6184 17.0892C17.5504 17.1591 17.4982 17.2411 17.4647 17.3303C17.4312 17.4195 17.4171 17.5141 17.4233 17.6085C17.5241 19.2273 17.9993 23.1772 20.2744 25.6404C22.9987 28.6082 26.5467 29.6308 30.1868 29.4797C30.3819 29.4688 30.5653 29.3889 30.7 29.2562C30.8347 29.1235 30.9107 28.9478 30.9125 28.7647V26.1719C30.9102 25.93 30.8213 25.6959 30.6599 25.507C30.4985 25.3181 30.2741 25.1855 30.0226 25.1305L28.1997 24.7528C27.9742 24.7078 27.7395 24.7272 27.5259 24.8084C27.3124 24.8897 27.1297 25.0292 27.0017 25.2088L26.5985 25.7807C26.5615 25.8331 26.5061 25.8717 26.442 25.8899C26.3779 25.9081 26.309 25.9048 26.2472 25.8806C25.3198 25.5055 21.625 23.8867 21.2189 21.1564C21.211 21.1036 21.2199 21.0499 21.2445 21.0019C21.2691 20.9539 21.3083 20.9137 21.3572 20.8866L22.0887 20.4684C22.2893 20.3519 22.4469 20.1805 22.5401 19.9773C22.6333 19.7742 22.6577 19.5491 22.6099 19.3325L22.2096 17.595C22.1511 17.3516 22.0043 17.1347 21.7943 16.9812C21.5843 16.8277 21.324 16.7472 21.0577 16.7533L18.1519 16.8585Z" stroke="#FFBE34" stroke-width="0.749479"/>
</svg>
