<svg width="56" height="56" viewBox="0 0 56 56" fill="none" xmlns="http://www.w3.org/2000/svg">
<path d="M49.9559 6.11205H5.25248C3.05555 6.11205 1.33594 7.81174 1.33594 9.98355V19.5207V28.9634V36.8008H16.0467H21.1092H53.8727V9.98355C53.8727 7.81174 52.1532 6.11205 49.9559 6.11205Z" fill="#ECF0F1"/>
<path d="M26.8727 29.7188V32.8349L22.1927 33.8735C22.0016 34.9122 21.6194 35.8565 21.1418 36.8008H16.0793C16.5569 35.7621 16.8431 34.5345 16.8431 33.2126C16.8431 28.6801 13.1177 24.903 8.43732 24.903C5.38063 24.903 2.70608 26.5083 1.27344 28.8689V19.4262L4.04354 21.2204C5.18951 20.4649 6.43151 19.9928 7.86415 19.6151L8.91493 14.9882H12.0672L13.1177 19.6151C14.4551 19.8984 15.7922 20.4649 16.9387 21.2204L20.9507 18.6708L23.148 20.8426L20.5686 24.8086C21.3324 25.9417 21.8101 27.1692 22.0971 28.5856L26.8727 29.7188Z" fill="#FFD550"/>
<path d="M49.6087 46.2334C51.2442 46.2334 52.5699 47.5441 52.5699 49.1607C52.5699 50.7782 51.2442 52.0879 49.6087 52.0879C47.9732 52.0879 46.6484 50.7782 46.6484 49.1607C46.6484 47.5441 47.9732 46.2334 49.6087 46.2334Z" fill="#FFD550"/>
<path d="M7.30984 47.4642C8.64654 47.4642 9.69742 48.5029 9.69742 49.8249C9.69742 51.1469 8.64654 52.1855 7.30984 52.1855C5.972 52.1855 4.92188 51.1469 4.92188 49.8249C4.92188 48.5029 5.972 47.4642 7.30984 47.4642Z" fill="#FFD550"/>
<path d="M38.4346 49.8255C39.7726 49.8255 40.8236 50.8642 40.8236 52.1862C40.8236 52.8472 40.5365 53.4138 40.1541 53.8859C39.6773 54.358 39.1041 54.5469 38.4346 54.5469H16.9427C15.6056 54.5469 14.5547 53.5082 14.5547 52.1862C14.5547 51.5252 14.8413 50.9587 15.223 50.4865C15.7011 50.0144 16.2739 49.8255 16.9427 49.8255H21.7186H33.6594H38.4346Z" fill="#FFD550"/>
<path d="M53.8727 36.7881V38.7711C53.8727 40.9429 52.1532 42.6426 49.9559 42.6426H29.9927H25.2164H5.25248C3.05555 42.6426 1.33594 40.9429 1.33594 38.7711V36.7881H16.0467H21.1092H53.8727Z" fill="#FFD550"/>
<path d="M32.3594 26.2233H49.0758V28.584H32.3594V26.2233Z" fill="black"/>
<path d="M46.6484 19.1374H49.0356V21.498H46.6484V19.1374Z" fill="black"/>
<path d="M44.3203 30.9343H46.7093V33.2949H44.3203V30.9343Z" fill="black"/>
<path d="M32.3594 19.1374H45.5414V21.498H32.3594V19.1374Z" fill="black"/>
<path d="M43.9213 0.53003C44.113 0.718884 44.3037 1.00216 44.3037 1.37987C44.3037 1.75758 44.2084 2.04086 43.9213 2.22971C43.7306 2.41857 43.4445 2.60742 43.062 2.60742C42.3935 2.60742 41.8203 2.04086 41.8203 1.37987C41.8203 1.09659 41.9157 0.718884 42.2027 0.53003C42.3935 0.341177 42.6805 0.152323 43.062 0.152323C43.4445 0.24675 43.7306 0.341177 43.9213 0.53003Z" fill="black"/>
<path d="M43.9213 46.614C44.113 46.8029 44.3037 47.0861 44.3037 47.4639C44.3037 47.7471 44.2084 48.1248 43.9213 48.3137C43.7306 48.5026 43.4445 48.6914 43.062 48.6914C42.3935 48.6914 41.8203 48.1248 41.8203 47.4639C41.8203 47.1806 41.9157 46.8029 42.2027 46.614C42.3935 46.4252 42.6805 46.2363 43.062 46.2363C43.4445 46.2363 43.7306 46.3307 43.9213 46.614Z" fill="black"/>
<path d="M40.8125 30.9343H43.1996V33.2949H40.8125V30.9343Z" fill="black"/>
<path d="M34.7969 22.6315H43.2018V24.9922H34.7969V22.6315Z" fill="black"/>
<path d="M32.3594 30.9343H39.5235V33.2949H32.3594V30.9343Z" fill="black"/>
<path d="M21.2416 1.75727C21.4331 1.94612 21.6238 2.2294 21.6238 2.60711C21.6238 2.98482 21.5286 3.2681 21.2416 3.45695C20.9554 3.64581 20.6688 3.74023 20.3822 3.74023C19.7135 3.74023 19.1406 3.17367 19.1406 2.51268C19.1406 2.2294 19.2362 1.8517 19.5224 1.66284C19.809 1.47399 20.0001 1.28514 20.3822 1.28514C20.764 1.28514 21.051 1.47399 21.2416 1.75727Z" fill="black"/>
<path d="M14.1561 45.3875C14.3476 45.5763 14.5382 45.8596 14.5382 46.2373C14.5382 46.5206 14.4426 46.8983 14.1561 47.0871C13.8699 47.276 13.6785 47.4648 13.2967 47.4648C12.6276 47.4648 12.0547 46.8983 12.0547 46.2373C12.0547 45.954 12.1502 45.5763 12.4365 45.3875C12.7234 45.1986 12.9145 45.0097 13.2967 45.0097C13.6785 45.0097 13.965 45.1986 14.1561 45.3875Z" fill="black"/>
<path d="M53.8642 38.0176H1.32746C0.65911 38.0176 0.0859375 37.451 0.0859375 36.79C0.0859375 36.129 0.65911 35.5625 1.32746 35.5625H53.8642C54.5328 35.5625 55.1059 36.129 55.1059 36.79C55.1059 37.451 54.5328 38.0176 53.8642 38.0176Z" fill="black"/>
<path d="M33.638 50.957C33.1602 50.957 32.7777 50.6738 32.587 50.296L28.9569 43.214C28.6707 42.6475 28.8614 41.8921 29.5297 41.6088C30.103 41.3255 30.8675 41.5143 31.1536 42.1753L34.7843 49.2573C35.0704 49.8239 34.8797 50.5793 34.2111 50.8626C33.9241 50.957 33.7333 50.957 33.638 50.957Z" fill="black"/>
<path d="M21.5713 50.957C21.3799 50.957 21.1892 50.957 20.9981 50.8626C20.4249 50.5793 20.1383 49.8239 20.4249 49.2573L24.0544 42.1753C24.3414 41.6088 25.1053 41.3255 25.6786 41.6088C26.2517 41.8921 26.5383 42.6475 26.2517 43.214L22.6218 50.296C22.4307 50.6738 22.049 50.957 21.5713 50.957Z" fill="black"/>
<path d="M16.942 50.9583C16.6558 50.9583 16.3688 51.0528 16.0826 51.3361C15.8911 51.5249 15.7005 51.9026 15.7005 52.1859C15.7005 52.8469 16.2732 53.4134 16.942 53.4134H38.4339C38.721 53.4134 39.0071 53.319 39.2941 53.0357C39.4849 52.8469 39.6766 52.5636 39.6766 52.1859C39.6766 51.5249 39.1034 50.9583 38.4339 50.9583H16.942ZM38.4339 55.6797H16.942C14.9362 55.6797 13.3125 54.0744 13.3125 52.0915C13.3125 51.1472 13.6943 50.2974 14.3634 49.5419C15.0317 48.881 15.987 48.5032 16.942 48.5032H38.4339C40.4405 48.5032 42.0637 50.1085 42.0637 52.0915C42.0637 53.0357 41.6822 53.8856 41.0137 54.641C40.2497 55.302 39.3895 55.6797 38.4339 55.6797Z" fill="black"/>
<path d="M21.0756 38.0176C20.8844 38.0176 20.6934 38.0176 20.5024 37.9232C19.9291 37.6399 19.7381 36.8845 20.0247 36.3179C20.5024 35.4681 20.7886 34.6182 20.98 33.6739C21.0756 33.2018 21.4577 32.9185 21.8395 32.8241L25.5649 31.9743V30.7467L21.8395 29.8969C21.3618 29.8024 21.0756 29.4247 20.98 29.047C20.6934 27.8195 20.2153 26.6864 19.547 25.6477C19.2608 25.2699 19.2608 24.7978 19.547 24.4201L21.6484 21.2096L20.7886 20.3598L17.5412 22.4371C17.159 22.7204 16.6814 22.7204 16.2993 22.4371C15.2484 21.7762 14.1023 21.304 12.8608 21.0207C12.3827 20.9263 12.0965 20.5486 12.0009 20.1709L11.1412 16.4882H9.89957L9.03981 20.1709C8.94425 20.643 8.56211 20.9263 8.18034 21.0207C6.93806 21.304 5.792 21.7762 4.74112 22.4371C4.35907 22.7204 3.88174 22.7204 3.4996 22.4371L0.72949 20.643C0.156319 20.2653 -0.0348038 19.6043 0.346964 19.0378C0.729488 18.4712 1.39784 18.2824 1.97111 18.6601L4.16795 19.982C5.02818 19.5099 5.9835 19.1322 6.93806 18.8489L7.79791 14.883C7.89338 14.3164 8.37108 13.9387 8.94425 13.9387H12.0965C12.6697 13.9387 13.1474 14.3164 13.2429 14.883L14.1023 18.8489C15.0576 19.1322 16.013 19.5099 16.8724 19.982L20.3116 17.8102C20.7886 17.5269 21.3618 17.6214 21.8395 17.9991L24.0363 20.1709C24.4185 20.5486 24.514 21.2096 24.2278 21.6817L22.0309 25.0811C22.5086 25.9309 22.8904 26.8752 23.1769 27.8195L27.0934 28.6693C27.6667 28.7637 28.0487 29.2359 28.0487 29.8024V32.9185C28.0487 33.4851 27.6667 33.9572 27.0934 34.0516L23.1769 34.9015C22.8904 35.7513 22.6037 36.6012 22.1264 37.451C21.9353 37.7343 21.4577 38.0176 21.0756 38.0176Z" fill="black"/>
<path d="M16.013 38.0176C15.8215 38.0176 15.6309 38.0176 15.5353 37.9232C14.9622 37.6399 14.6755 36.9789 14.9622 36.3179C15.4398 35.3736 15.6309 34.3349 15.6309 33.2962C15.6309 29.4247 12.3827 26.2142 8.46664 26.2142C5.88718 26.2142 3.59516 27.5362 2.35316 29.6136C1.97111 30.1801 1.30228 30.369 0.72949 29.9913C0.156319 29.6136 -0.0348037 28.9526 0.346964 28.386C2.06657 25.5532 5.12326 23.8535 8.5621 23.8535C13.8161 23.8535 18.114 28.1028 18.114 33.2962C18.114 34.7126 17.8277 36.0346 17.159 37.3566C16.8724 37.7343 16.4907 38.0176 16.013 38.0176Z" fill="black"/>
<path d="M5.24401 7.32985C3.71552 7.32985 2.4739 8.5574 2.4739 10.0682V38.8684C2.4739 40.3793 3.71552 41.6068 5.24401 41.6068H49.9474C51.4762 41.6068 52.7179 40.3793 52.7179 38.8684V9.9738C52.7179 8.46297 51.4762 7.23543 49.9474 7.23543H5.24401V7.32985ZM49.9474 43.873H5.24401C2.37834 43.873 0.0859375 41.6068 0.0859375 38.774V9.9738C0.0859375 7.141 2.37834 4.87476 5.24401 4.87476H49.9474C52.8133 4.87476 55.1059 7.141 55.1059 9.9738V38.774C55.1059 41.6068 52.7179 43.873 49.9474 43.873Z" fill="black"/>
<path d="M45.5614 16.7754C45.2753 16.7754 44.9882 16.681 44.7021 16.3977C44.2243 15.9255 44.2243 15.1701 44.7021 14.698L46.2309 13.1872L44.7021 11.6763C44.2243 11.2042 44.2243 10.4488 44.7021 9.97666C45.1799 9.50452 45.9438 9.50452 46.4216 9.97666L48.8097 12.3373C49.2865 12.8095 49.2865 13.5649 48.8097 14.037L46.4216 16.3977C46.1346 16.5865 45.8484 16.7754 45.5614 16.7754Z" fill="black"/>
<path d="M35.9885 16.7754C35.7024 16.7754 35.4163 16.681 35.1292 16.3977L32.7412 14.037C32.2634 13.5649 32.2634 12.8095 32.7412 12.3373L35.1292 9.97666C35.607 9.50452 36.3709 9.50452 36.8487 9.97666C37.3256 10.4488 37.3256 11.2042 36.8487 11.6763L35.2246 13.1872L36.7534 14.698C37.2302 15.1701 37.2302 15.9255 36.7534 16.3977C36.5617 16.5865 36.2756 16.7754 35.9885 16.7754Z" fill="black"/>
<path d="M39.5554 16.7754C39.3647 16.7754 39.174 16.7754 38.9823 16.681C38.4091 16.3977 38.123 15.6423 38.4091 15.0757L40.7981 10.3544C41.0842 9.7878 41.8481 9.50452 42.4213 9.7878C42.9945 10.0711 43.2806 10.8265 42.9945 11.3931L40.6064 16.1144C40.4157 16.4921 40.0332 16.7754 39.5554 16.7754Z" fill="black"/>
<path d="M7.2943 48.597C6.62557 48.597 6.0524 49.1636 6.0524 49.8246C6.0524 50.4856 6.62557 51.0521 7.2943 51.0521C7.96266 51.0521 8.53582 50.4856 8.53582 49.8246C8.44036 49.1636 7.8671 48.597 7.2943 48.597ZM7.2943 53.3184C5.28811 53.3184 3.66406 51.7131 3.66406 49.7301C3.66406 47.7472 5.28811 46.1419 7.2943 46.1419C9.30012 46.1419 10.9242 47.7472 10.9242 49.7301C10.9242 51.7131 9.20456 53.3184 7.2943 53.3184Z" fill="black"/>
<path d="M49.7108 47.4639C48.7561 47.4639 47.8959 48.2193 47.8959 49.258C47.8959 50.2967 48.6598 51.0521 49.7108 51.0521C50.7617 51.0521 51.5256 50.2967 51.5256 49.258C51.5256 48.2193 50.7617 47.4639 49.7108 47.4639ZM49.7108 53.3184C47.419 53.3184 45.5078 51.4298 45.5078 49.1636C45.5078 46.8973 47.419 45.0088 49.7108 45.0088C52.0034 45.0088 53.9137 46.8973 53.9137 49.1636C53.9137 51.4298 52.0034 53.3184 49.7108 53.3184Z" fill="black"/>
</svg>
