<svg width="65" height="60" viewBox="0 0 65 60" fill="none" xmlns="http://www.w3.org/2000/svg">
<path d="M43.2906 21.6174H42.9706C42.7579 22.5648 42.3316 23.407 41.9063 24.2491C40.0957 27.4072 36.5818 29.5125 32.6416 29.5125C28.7014 29.5125 25.2939 27.4072 23.377 24.2491C22.9506 23.407 22.5254 22.5648 22.3117 21.6174H21.9927H11.3438V51.9347H26.0392L27.4235 54.5664H38.0724L39.4567 51.9347H53.9385V21.6174H43.2906Z" fill="#ECF0F1"/>
<path d="M48.6802 33.5033V41.3984H16.7344V33.5033H48.6802ZM39.4166 36.135V38.7667H42.0788V36.135H39.4166ZM38.0323 38.7667V36.135H35.37V38.7667H38.0323ZM34.0921 38.7667V36.135H31.4299V38.7667H34.0921ZM30.0456 38.7667V36.135H27.3833V38.7667H30.0456ZM26.1054 38.7667V36.135H23.4431V38.7667H26.1054ZM22.0589 38.7667V36.135H19.3966V38.7667H22.0589ZM43.3568 38.7667H46.019V36.135H43.3568V38.7667Z" fill="#F14742"/>
<path d="M59.3647 51.9345H63.4101C63.4101 55.6189 60.4289 58.5664 56.7014 58.5664H8.78213C6.97152 58.5664 5.26827 57.8295 4.09663 56.6716C2.925 55.5136 2.17969 53.8293 2.17969 52.0398H6.11989H11.4444H26.1398L27.5241 54.6715H38.1731L39.5573 52.0398H54.0391H59.3647V51.9345Z" fill="#FFD550"/>
<path d="M22.1062 16.3568H22.4252C22.2125 17.1989 22.1062 18.0411 22.1062 18.9885C22.1062 19.9359 22.2125 20.778 22.4252 21.6202H22.1062H11.4573V51.9375H6.13281V20.0412C6.13281 18.0411 7.83711 16.3568 9.86037 16.3568H22.1062Z" fill="#FFD550"/>
<path d="M59.4028 20.0412V51.9375H54.0773V21.6202H43.4294H43.1094C43.3231 20.778 43.4294 19.9359 43.4294 18.9885C43.4294 18.0411 43.3231 17.1989 43.1094 16.3568H43.4294H55.6753C57.6985 16.3568 59.4028 18.0411 59.4028 20.0412Z" fill="#FFD550"/>
<path d="M11.4044 5.82057C12.895 5.82057 14.0667 6.97852 14.0667 8.45227C14.0667 9.92603 12.895 11.084 11.4044 11.084C9.91382 11.084 8.74219 9.92603 8.74219 8.45227C8.74219 6.97852 9.91382 5.82057 11.4044 5.82057Z" fill="#FFD550"/>
<path d="M53.4262 3.18625C55.2358 3.18625 56.7264 4.66001 56.7264 6.44957C56.7264 8.23913 55.2358 9.71289 53.4262 9.71289C51.6156 9.71289 50.125 8.23913 50.125 6.44957C50.125 4.66001 51.5093 3.18625 53.4262 3.18625Z" fill="#FFD550"/>
<path d="M43.0951 16.3568C43.3088 17.199 43.4151 18.0411 43.4151 18.9885C43.4151 19.9359 43.3088 20.7781 43.0951 21.6202C42.8824 22.5677 42.4561 23.4098 42.0308 24.252C40.2202 21.0939 36.7063 18.9885 32.7661 18.9885C34.5757 18.9885 36.0673 17.5148 36.0673 15.7252C36.0673 13.9357 34.5757 12.4619 32.7661 12.4619C30.9555 12.4619 29.4649 13.9357 29.4649 15.7252C29.4649 17.5148 30.9555 18.9885 32.7661 18.9885C28.8259 18.9885 25.4184 21.0939 23.5015 24.252C23.0751 23.4098 22.6498 22.5677 22.4362 21.6202C22.2235 20.7781 22.1172 19.9359 22.1172 18.9885C22.1172 18.0411 22.2235 17.199 22.4362 16.3568C23.6078 11.8303 27.7606 8.4617 32.7661 8.4617C37.7706 8.4617 41.9234 11.8303 43.0951 16.3568Z" fill="#FFD550"/>
<path d="M32.6319 18.9829C36.5721 18.9829 39.9796 21.0883 41.8965 24.2463C40.0859 27.4044 36.5721 29.5098 32.6319 29.5098C28.6917 29.5098 25.2841 27.4044 23.3672 24.2463C25.2841 21.0883 28.6917 18.9829 32.6319 18.9829Z" fill="#65B2FE"/>
<path d="M32.6449 12.4441C34.4545 12.4441 35.9462 13.9178 35.9462 15.7074C35.9462 17.4969 34.4545 18.9707 32.6449 18.9707C30.8343 18.9707 29.3438 17.4969 29.3438 15.7074C29.3438 13.9178 30.8343 12.4441 32.6449 12.4441Z" fill="#FFD8A8"/>
<path d="M44.7344 45.3058H47.3966V47.9375H44.7344V45.3058Z" fill="black"/>
<path d="M43.3125 36.1378H45.9747V38.7695H43.3125V36.1378Z" fill="black"/>
<path d="M44.2328 4.87941C44.4465 5.08994 44.6592 5.40575 44.6592 5.82682C44.6592 6.14263 44.5529 6.5637 44.2328 6.77424C43.9139 6.98478 43.7002 7.19531 43.2749 7.19531C42.5286 7.19531 41.8906 6.5637 41.8906 5.82682C41.8906 5.51102 41.997 5.08994 42.3159 4.87941C42.6359 4.66887 42.8486 4.45833 43.2749 4.45833C43.7002 4.45833 44.0202 4.66887 44.2328 4.87941Z" fill="black"/>
<path d="M40.7031 45.3058H43.3664V47.9375H40.7031V45.3058Z" fill="black"/>
<path d="M39.3516 36.1378H42.0138V38.7695H39.3516V36.1378Z" fill="black"/>
<path d="M18.1562 45.3058H39.4541V47.9375H18.1562V45.3058Z" fill="black"/>
<path d="M35.3203 36.1378H37.9826V38.7695H35.3203V36.1378Z" fill="black"/>
<path d="M31.3594 36.1378H34.0216V38.7695H31.3594V36.1378Z" fill="black"/>
<path d="M27.3281 36.1378H29.9904V38.7695H27.3281V36.1378Z" fill="black"/>
<path d="M28.2485 0.984676C28.4622 1.19521 28.6748 1.51102 28.6748 1.93209C28.6748 2.35317 28.5685 2.66897 28.2485 2.87951C27.9295 3.09004 27.6095 3.19531 27.2905 3.19531C26.5452 3.19531 25.9062 2.5637 25.9062 1.82682C25.9062 1.51102 26.0126 1.08994 26.3315 0.879408C26.6516 0.668871 26.8642 0.458334 27.2905 0.458334C27.7158 0.458334 28.0358 0.668871 28.2485 0.984676Z" fill="black"/>
<path d="M23.3672 36.1378H26.0294V38.7695H23.3672V36.1378Z" fill="black"/>
<path d="M19.3359 36.1378H21.9982V38.7695H19.3359V36.1378Z" fill="black"/>
<path d="M20.436 7.50831C20.6497 7.71885 20.8623 8.03466 20.8623 8.45573C20.8623 8.77153 20.756 9.19261 20.436 9.40315C20.117 9.61368 19.9033 9.82422 19.478 9.82422C18.7327 9.82422 18.0938 9.19261 18.0938 8.45573C18.0938 8.13992 18.2001 7.71885 18.519 7.50831C18.8391 7.29778 19.0517 7.08724 19.478 7.08724C19.9033 7.08724 20.2233 7.29778 20.436 7.50831Z" fill="black"/>
<path d="M32.7871 13.7099C31.7217 13.7099 30.7638 14.552 30.7638 15.71C30.7638 16.8679 31.6154 17.7101 32.7871 17.7101C33.9576 17.7101 34.8103 16.8679 34.8103 15.71C34.8103 14.552 33.8513 13.7099 32.7871 13.7099ZM32.7871 20.3418C30.2311 20.3418 28.1016 18.2364 28.1016 15.71C28.1016 13.1835 30.2311 11.0782 32.7871 11.0782C35.343 11.0782 37.4726 13.1835 37.4726 15.71C37.4726 18.2364 35.343 20.3418 32.7871 20.3418Z" fill="black"/>
<path d="M59.2483 53.1953C58.503 53.1953 57.863 52.5637 57.863 51.8268V20.0358C57.863 18.7726 56.7987 17.6146 55.4144 17.6146H43.2749C42.5286 17.6146 41.8906 16.983 41.8906 16.2461C41.8906 15.5092 42.5286 14.8776 43.2749 14.8776H55.5208C58.2893 14.8776 60.6326 17.0883 60.6326 19.9305V51.8268C60.6326 52.5637 59.9936 53.1953 59.2483 53.1953Z" fill="black"/>
<path d="M53.9228 53.1953C53.1775 53.1953 52.5396 52.5637 52.5396 51.8268V22.9833H43.2749C42.5286 22.9833 41.8906 22.3517 41.8906 21.6148C41.8906 20.8779 42.5286 20.2463 43.2749 20.2463H53.9228C54.6681 20.2463 55.3071 20.8779 55.3071 21.6148V51.9321C55.3071 52.5637 54.6681 53.1953 53.9228 53.1953Z" fill="black"/>
<path d="M11.4858 53.1953C10.7405 53.1953 10.1016 52.5637 10.1016 51.8268V21.6148C10.1016 20.8779 10.7405 20.2463 11.4858 20.2463H22.1348C22.8801 20.2463 23.519 20.8779 23.519 21.6148C23.519 22.3517 22.8801 22.9833 22.1348 22.9833H12.7638V51.9321C12.8701 52.5637 12.2311 53.1953 11.4858 53.1953Z" fill="black"/>
<path d="M6.09522 53.1953C5.34992 53.1953 4.71094 52.5637 4.71094 51.8268V20.0358C4.71094 17.2988 6.94684 14.9829 9.82277 14.9829H22.0686C22.8139 14.9829 23.4529 15.6145 23.4529 16.3514C23.4529 17.0883 22.8139 17.7199 22.0686 17.7199H9.82277C8.54482 17.7199 7.37318 18.7725 7.37318 20.141V52.0374C7.4795 52.5637 6.84052 53.1953 6.09522 53.1953Z" fill="black"/>
<path d="M3.62487 53.1943C3.83752 54.1417 4.37018 54.8786 5.00915 55.6154C5.96815 56.5629 7.35243 57.1945 8.73671 57.1945H56.6559C59.1055 57.1945 61.2351 55.5102 61.7678 53.1943H40.1509L39.1919 55.0891C38.9793 55.5102 38.554 55.826 38.0213 55.826H27.3724C26.8397 55.826 26.4134 55.5102 26.2007 55.0891L25.2417 53.1943H3.62487ZM56.6559 59.8262H8.73671C6.60713 59.8262 4.58387 58.984 3.09222 57.5103C1.60162 56.0365 0.75 54.0364 0.75 51.931C0.75 51.1942 1.38897 50.5626 2.13427 50.5626H26.0944C26.6271 50.5626 27.0524 50.8784 27.265 51.2994L28.224 53.1943H37.276L38.234 51.2994C38.4466 50.8784 38.8729 50.5626 39.4056 50.5626H63.3647C64.111 50.5626 64.75 51.1942 64.75 51.931C64.6426 56.247 61.0225 59.8262 56.6559 59.8262Z" fill="black"/>
<path d="M23.4822 25.6211C23.2696 25.6211 23.0559 25.5158 22.8432 25.4106C22.2043 25.0948 21.9916 24.2526 22.3106 23.621C24.4402 19.9366 28.3803 17.726 32.6395 17.726C36.8997 17.726 40.8399 20.0419 42.9695 23.621C43.2895 24.2526 43.0758 25.0948 42.4368 25.4106C41.7978 25.7264 40.9462 25.5158 40.6262 24.8842C38.923 22.042 35.8344 20.2524 32.5332 20.2524C29.233 20.2524 26.1444 22.042 24.4401 24.8842C24.4401 25.3053 24.0149 25.6211 23.4822 25.6211Z" fill="black"/>
<path d="M32.7285 9.82718C28.4683 9.82718 24.7418 12.6694 23.6765 16.7749C23.4639 17.5118 23.3575 18.2486 23.3575 19.0908C23.3575 19.8277 23.4639 20.6698 23.6765 21.4067C23.8902 22.2488 24.2092 22.9857 24.6355 23.7226C26.3387 26.5649 29.4273 28.3544 32.7285 28.3544C36.0297 28.3544 39.1173 26.5649 40.8216 23.7226C41.2468 22.9857 41.5668 22.2488 41.7795 21.4067C41.9932 20.6698 42.0995 19.9329 42.0995 19.0908C42.0995 18.3539 41.9932 17.5118 41.7795 16.7749C40.7142 12.5642 36.9877 9.82718 32.7285 9.82718ZM32.7285 30.8809C28.4683 30.8809 24.5281 28.565 22.3985 24.9858C21.8669 24.0384 21.4406 23.091 21.1206 22.0383C20.9079 21.0909 20.6953 20.0382 20.6953 19.0908C20.6953 18.1434 20.8016 17.0907 21.1206 16.1433C22.5059 10.8799 27.2967 7.30073 32.7285 7.30073C38.1593 7.30073 42.9511 10.9851 44.3354 16.1433C44.5491 17.0907 44.7617 18.1434 44.7617 19.0908C44.7617 20.0382 44.6554 21.0909 44.3354 22.0383C44.0164 23.091 43.6964 24.0384 43.0575 24.9858C40.9279 28.565 36.9877 30.8809 32.7285 30.8809Z" fill="black"/>
<path d="M18.0733 40.0265H47.3579V34.7631H18.0733V40.0265ZM48.6348 42.6582H16.689C15.9437 42.6582 15.3047 42.0266 15.3047 41.2897V33.3946C15.3047 32.6577 15.9437 32.0261 16.689 32.0261H48.6348C49.3811 32.0261 50.0201 32.6577 50.0201 33.3946V41.2897C50.0201 42.0266 49.3811 42.6582 48.6348 42.6582Z" fill="black"/>
<path d="M11.3668 7.19166C10.6215 7.19166 9.98256 7.82327 9.98256 8.56015C9.98256 9.29703 10.6215 9.92864 11.3668 9.92864C12.1121 9.92864 12.7511 9.29703 12.7511 8.56015C12.7511 7.718 12.1121 7.19166 11.3668 7.19166ZM11.3668 12.4551C9.13092 12.4551 7.32031 10.6655 7.32031 8.45488C7.32031 6.24424 9.13092 4.45468 11.3668 4.45468C13.6027 4.45468 15.4134 6.24424 15.4134 8.45488C15.4134 10.6655 13.6027 12.4551 11.3668 12.4551Z" fill="black"/>
<path d="M53.3819 4.55734C52.3165 4.55734 51.3586 5.39949 51.3586 6.55744C51.3586 7.7154 52.2102 8.55754 53.3819 8.55754C54.5524 8.55754 55.4041 7.7154 55.4041 6.55744C55.4041 5.39949 54.4461 4.55734 53.3819 4.55734ZM53.3819 11.084C50.8259 11.084 48.6953 8.97862 48.6953 6.45217C48.6953 3.92573 50.8259 1.82036 53.3819 1.82036C55.9367 1.82036 58.0674 3.92573 58.0674 6.45217C58.0674 8.97862 55.9367 11.084 53.3819 11.084Z" fill="black"/>
</svg>
