<svg width="60" height="56" viewBox="0 0 60 56" fill="none" xmlns="http://www.w3.org/2000/svg">
<path d="M54.5298 47.769H58.2602C58.2602 51.1656 55.512 53.8828 52.0756 53.8828H7.89911C6.23092 53.8828 4.65977 53.2035 3.57967 52.136C2.49957 51.0685 1.8125 49.5158 1.8125 47.8661H5.44488H10.3534H23.9008L25.1769 50.2922H34.9939L36.271 47.8661H49.6204H54.5298V47.769Z" fill="#FFD550"/>
<path d="M16.554 15.0565V19.9087H10.3694V47.8574H5.46094V18.453C5.46094 16.6092 7.03208 15.0565 8.89727 15.0565H16.554Z" fill="#FFD550"/>
<path d="M54.4847 18.453V47.8574H49.5753V19.9087H43.3906V15.0565H51.0484C52.9136 15.0565 54.4847 16.5121 54.4847 18.453Z" fill="#FFD550"/>
<path d="M49.5405 19.9175V47.8663H36.0921L34.8159 50.1953H24.9989L23.7228 47.7692H10.2734V19.9175H16.4581V34.8623C16.4581 36.6091 17.9312 38.0648 19.6974 38.0648H40.1175C41.8846 38.0648 43.3558 36.6091 43.3558 34.8623V19.9175H49.5405Z" fill="white"/>
<path d="M16.5469 13.7975V34.8561C16.5469 36.6029 18.02 38.0586 19.7862 38.0586H40.2063C41.9734 38.0586 43.4446 36.6029 43.4446 34.8561V19.9113V15.0591V13.7975H16.5469Z" fill="white"/>
<path d="M40.2063 6.52051H19.7862C18.02 6.52051 16.5469 7.97617 16.5469 9.72297V13.7988H43.5437V9.72297C43.5437 7.97617 42.0705 6.52051 40.2063 6.52051Z" fill="#FFD550"/>
<path d="M7.2611 1.6688C8.93026 1.6688 10.3044 3.02742 10.3044 4.67717C10.3044 6.32693 8.93026 7.68555 7.2611 7.68555C5.59291 7.68555 4.21875 6.32693 4.21875 4.67717C4.21875 3.02742 5.49489 1.6688 7.2611 1.6688Z" fill="#747371"/>
<path d="M51.963 5.36068C53.3372 5.36068 54.4173 6.42817 54.4173 7.78678C54.4173 9.1454 53.3372 10.2129 51.963 10.2129C50.5889 10.2129 49.5078 9.1454 49.5078 7.78678C49.5078 6.42817 50.5889 5.36068 51.963 5.36068Z" fill="#747371"/>
<path d="M47.9561 2.05057C48.1521 2.24466 48.3491 2.53579 48.3491 2.92397C48.3491 3.31215 48.2511 3.60328 47.9561 3.79737C47.6621 3.99146 47.4651 4.18555 47.073 4.18555C46.3859 4.18555 45.7969 3.60328 45.7969 2.92397C45.7969 2.63284 45.8949 2.24466 46.1889 2.05057C46.3859 1.85648 46.68 1.6624 47.073 1.6624C47.4651 1.6624 47.7601 1.85648 47.9561 2.05057Z" fill="black"/>
<path d="M21.3594 33.2067H38.5391V35.6328H21.3594V33.2067Z" fill="black"/>
<path d="M36.0859 25.9352H38.5402V28.3613H36.0859V25.9352Z" fill="black"/>
<path d="M21.3594 25.9352H34.9068V28.3613H21.3594V25.9352Z" fill="black"/>
<path d="M23.9141 29.6227H32.5529V32.0488H23.9141V29.6227Z" fill="black"/>
<path d="M23.9141 8.94889H26.3683V11.375H23.9141V8.94889Z" fill="black"/>
<path d="M20.1953 8.94889H22.6495V11.375H20.1953V8.94889Z" fill="black"/>
<path d="M12.3633 9.34159C12.5594 9.53568 12.7554 9.82681 12.7554 10.215C12.7554 10.5061 12.6574 10.8943 12.3633 11.0884C12.0683 11.2825 11.8723 11.4766 11.4793 11.4766C10.7922 11.4766 10.2031 10.8943 10.2031 10.215C10.2031 9.92385 10.3011 9.53568 10.5962 9.34159C10.8902 9.1475 11.0872 8.95341 11.4793 8.95341C11.8723 8.95341 12.1663 9.1475 12.3633 9.34159Z" fill="black"/>
<path d="M3.15126 49.0282C3.34729 49.9016 3.83832 50.5809 4.42738 51.2602C5.31048 52.1336 6.5866 52.7159 7.86274 52.7159H52.0392C54.2965 52.7159 56.2597 51.1632 56.7507 49.0282H36.8227L35.9396 50.775C35.7436 51.1632 35.3496 51.4543 34.8595 51.4543H25.0425C24.5524 51.4543 24.1594 51.1632 23.9624 50.775L23.0793 49.0282H3.15126ZM52.0392 55.0449H7.86274C5.89953 55.0449 4.03435 54.2686 2.66021 52.9099C1.28509 51.5513 0.5 49.7075 0.5 47.7666C0.5 47.0873 1.08905 46.505 1.77612 46.505H23.8644C24.3554 46.505 24.7484 46.7962 24.9445 47.1843L25.8276 48.9311H34.1724L35.0565 47.1843C35.2525 46.7962 35.6446 46.505 36.1356 46.505H58.2239C58.9109 46.505 59.5 47.0873 59.5 47.7666C59.402 51.8425 56.0637 55.0449 52.0392 55.0449Z" fill="black"/>
<path d="M54.4839 49.0352C53.7968 49.0352 53.2077 48.4529 53.2077 47.7736V18.4662C53.2077 17.3017 52.2257 16.2342 50.9495 16.2342H43.2927C42.6057 16.2342 42.0156 15.6519 42.0156 14.9726C42.0156 14.2933 42.6057 13.711 43.2927 13.711H50.9495C53.5018 13.711 55.662 15.749 55.662 18.3692V47.7736C55.759 48.4529 55.1709 49.0352 54.4839 49.0352Z" fill="black"/>
<path d="M5.42458 49.0352C4.73751 49.0352 4.14844 48.4529 4.14844 47.7736V18.4662C4.14844 15.9431 6.21063 13.8081 8.86092 13.8081H16.5177C17.2048 13.8081 17.7938 14.3904 17.7938 15.0697C17.7938 15.749 17.2048 16.3312 16.5177 16.3312H8.86092C7.6828 16.3312 6.60269 17.3017 6.60269 18.5633V47.9677C6.70071 48.4529 6.11166 49.0352 5.42458 49.0352Z" fill="black"/>
<path d="M49.5457 49.0352C48.8587 49.0352 48.2706 48.4529 48.2706 47.7736V21.0864H43.3611C42.674 21.0864 42.0859 20.5041 42.0859 19.8248C42.0859 19.1455 42.674 18.5632 43.3611 18.5632H49.5457C50.2328 18.5632 50.8228 19.1455 50.8228 19.8248V47.7736C50.8228 48.4529 50.2328 49.0352 49.5457 49.0352Z" fill="black"/>
<path d="M10.3855 49.0352C9.69842 49.0352 9.10938 48.4529 9.10938 47.7736V19.9219C9.10938 19.2426 9.69842 18.6603 10.3855 18.6603H16.5701C17.2572 18.6603 17.8463 19.2426 17.8463 19.9219C17.8463 20.6012 17.2572 21.1835 16.5701 21.1835H11.6616V47.8706C11.6616 48.4529 11.0726 49.0352 10.3855 49.0352Z" fill="black"/>
<path d="M19.7499 7.78094C18.6707 7.78094 17.6886 8.65434 17.6886 9.81887V34.8563C17.6886 35.9238 18.5727 36.8942 19.7499 36.8942H40.1699C41.249 36.8942 42.2311 36.0208 42.2311 34.8563V9.81887C42.2311 8.75138 41.3471 7.78094 40.1699 7.78094H19.7499ZM40.1699 39.3203H19.7499C17.2966 39.3203 15.2344 37.2824 15.2344 34.8563V9.81887C15.2344 7.39276 17.2966 5.35483 19.7499 5.35483H40.1699C42.6242 5.35483 44.6854 7.39276 44.6854 9.81887V34.8563C44.6854 37.2824 42.6242 39.3203 40.1699 39.3203Z" fill="black"/>
<path d="M43.5073 15.0625H16.5105C15.8234 15.0625 15.2344 14.4802 15.2344 13.8009C15.2344 13.1216 15.8234 12.5393 16.5105 12.5393H43.5073C44.1944 12.5393 44.7834 13.1216 44.7834 13.8009C44.6854 14.4802 44.0954 15.0625 43.5073 15.0625Z" fill="black"/>
<path d="M34.8845 23.5117C34.5904 23.5117 34.2954 23.4147 34.0004 23.1235C33.5103 22.6383 33.5103 21.862 34.0004 21.3767L35.5715 19.824L34.0004 18.2713C33.5103 17.7861 33.5103 17.0098 34.0004 16.5245C34.4914 16.0393 35.2775 16.0393 35.7685 16.5245L38.2218 18.9506C38.7128 19.4359 38.7128 20.2122 38.2218 20.6974L35.7685 23.1235C35.4735 23.4147 35.1785 23.5117 34.8845 23.5117Z" fill="black"/>
<path d="M25.0106 23.5117C24.7165 23.5117 24.4215 23.4147 24.1275 23.1235L21.6722 20.6974C21.1822 20.2122 21.1822 19.4359 21.6722 18.9506L24.1275 16.5245C24.6185 16.0393 25.4036 16.0393 25.8946 16.5245C26.3847 17.0098 26.3847 17.7861 25.8946 18.2713L24.3235 19.824L25.8946 21.3767C26.3847 21.862 26.3847 22.6383 25.8946 23.1235C25.5996 23.4147 25.3056 23.5117 25.0106 23.5117Z" fill="black"/>
<path d="M28.6298 23.5117C28.4328 23.5117 28.2368 23.5117 28.0408 23.4147C27.4517 23.1235 27.1567 22.3472 27.4517 21.7649L29.9059 16.9127C30.201 16.3304 30.986 16.0393 31.5751 16.3304C32.1642 16.6216 32.4582 17.3979 32.1642 17.9802L29.7099 22.8324C29.5129 23.3176 29.1209 23.5117 28.6298 23.5117Z" fill="black"/>
<path d="M52.082 6.52279C51.3949 6.52279 50.8048 7.10505 50.8048 7.78436C50.8048 8.46367 51.3949 9.04594 52.082 9.04594C52.769 9.04594 53.3581 8.46367 53.3581 7.78436C53.3581 7.10505 52.769 6.52279 52.082 6.52279ZM52.082 11.375C50.0207 11.375 48.3516 9.72525 48.3516 7.68732C48.3516 5.64939 50.0207 3.99964 52.082 3.99964C54.1432 3.99964 55.8114 5.64939 55.8114 7.68732C55.8114 9.72525 54.1432 11.375 52.082 11.375Z" fill="black"/>
<path d="M7.22569 2.93247C6.24457 2.93247 5.3605 3.70883 5.3605 4.77631C5.3605 5.8438 6.14656 6.62016 7.22569 6.62016C8.30579 6.62016 9.09088 5.8438 9.09088 4.77631C9.09088 3.70883 8.20778 2.93247 7.22569 2.93247ZM7.22569 8.94922C4.87043 8.94922 2.90625 7.00833 2.90625 4.67927C2.90625 2.35021 4.87043 0.409322 7.22569 0.409322C9.58193 0.409322 11.5451 2.35021 11.5451 4.67927C11.5451 7.00833 9.58193 8.94922 7.22569 8.94922Z" fill="black"/>
</svg>
