<svg width="61" height="64" viewBox="0 0 61 64" fill="none" xmlns="http://www.w3.org/2000/svg">
<path d="M47.4314 9.03815H13.3356C9.79325 9.03815 6.80469 11.8834 6.80469 15.4947V15.823V19.9814V24.1398V28.2982V32.2378V36.3962V40.5547V44.7131V48.6526V49.0904C6.80469 52.5922 9.68272 55.5469 13.3356 55.5469H13.7788H17.9854H22.192H26.3974H30.384H34.5906H38.7961H43.0027H46.9893H47.4314C50.9738 55.5469 53.9635 52.7016 53.9635 49.0904V48.6526V44.4942V40.3358V36.1774V32.2378V28.0794V23.9209V19.7625V15.823V15.3852C53.9635 11.8834 50.9738 9.03815 47.4314 9.03815Z" fill="white"/>
<path d="M4.20551 56.8575C5.75533 56.8575 6.97352 58.0615 6.97352 59.5938C6.97352 61.1261 5.75533 62.3301 4.20551 62.3301C2.6546 62.3301 1.4375 61.1261 1.4375 59.5938C1.4375 58.0615 2.6546 56.8575 4.20551 56.8575Z" fill="#FFD550"/>
<path d="M56.7825 2.14466C58.3323 2.14466 59.5505 3.34861 59.5505 4.88092C59.5505 6.41323 58.3323 7.61719 56.7825 7.61719C55.2327 7.61719 54.0156 6.41323 54.0156 4.88092C54.0156 3.34861 55.2327 2.14466 56.7825 2.14466Z" fill="#FFD550"/>
<path d="M36.1287 32.2384C36.1287 29.1743 33.5822 26.6574 30.4831 26.6574C27.3829 26.6574 24.8375 29.1743 24.8375 32.2384C24.8375 35.3025 27.3829 37.8195 30.4831 37.8195C33.5822 37.8195 36.1287 35.3025 36.1287 32.2384ZM45.3166 30.8158V33.661L41.11 34.6459C40.889 35.8497 40.3353 37.0534 39.6699 38.0383L41.9954 41.6496L40.0026 43.6194L36.3497 41.3213C35.3528 41.9779 34.1359 42.4156 32.918 42.7439L31.921 46.9023H29.0429L28.0471 42.7439C26.8292 42.5251 25.6122 41.9779 24.6153 41.3213L20.9625 43.6194L18.9697 41.6496L21.2941 38.0383C20.6298 37.0534 20.1877 35.8497 19.855 34.6459L15.6484 33.661V30.8158L19.855 29.8309C20.0761 28.6271 20.6298 27.4234 21.2941 26.4385L18.9697 22.8272L20.9625 20.8575L24.6153 23.1555C25.6122 22.4989 26.8292 22.0612 28.0471 21.7329L29.0429 17.5745H31.921L32.918 21.7329C34.1359 22.0612 35.3528 22.4989 36.3497 23.1555L40.0026 20.8575L41.9954 22.8272L39.6699 26.4385C40.3353 27.4234 40.7774 28.6271 41.11 29.8309L45.3166 30.8158Z" fill="#FFD550"/>
<path d="M47.0703 48.6524H49.8372V51.3887H47.0703V48.6524Z" fill="black"/>
<path d="M47.0703 44.6016H49.8372V47.3379H47.0703V44.6016Z" fill="black"/>
<path d="M47.0703 17.2462H49.8372V19.9824H47.0703V17.2462Z" fill="black"/>
<path d="M47.0703 13.086H49.8372V15.8223H47.0703V13.086Z" fill="black"/>
<path d="M42.9375 48.6524H45.7055V51.3887H42.9375V48.6524Z" fill="black"/>
<path d="M42.9375 13.086H45.7055V15.8223H42.9375V13.086Z" fill="black"/>
<path d="M15.2734 48.6524H18.0414V51.3887H15.2734V48.6524Z" fill="black"/>
<path d="M15.2734 13.086H18.0414V15.8223H15.2734V13.086Z" fill="black"/>
<path d="M11.0391 48.6524H13.8071V51.3887H11.0391V48.6524Z" fill="black"/>
<path d="M11.0391 44.6016H13.8071V47.3379H11.0391V44.6016Z" fill="black"/>
<path d="M11.0391 17.2462H13.8071V19.9824H11.0391V17.2462Z" fill="black"/>
<path d="M11.0391 13.086H13.8071V15.8223H11.0391V13.086Z" fill="black"/>
<path d="M13.461 10.3487C10.5829 10.3487 8.36799 12.6468 8.36799 15.3826V49.0877C8.36799 51.933 10.6934 54.1216 13.461 54.1216H47.5568C50.4349 54.1216 52.6487 51.8235 52.6487 49.0877V15.3826C52.6487 12.5373 50.3244 10.3487 47.5568 10.3487H13.461ZM47.5568 56.8574H13.461C9.14277 56.8574 5.60156 53.3556 5.60156 49.0877V15.3826C5.60156 11.1147 9.14277 7.61288 13.461 7.61288H47.5568C51.8739 7.61288 55.4173 11.1147 55.4173 15.3826V49.0877C55.4173 53.3556 51.8739 56.8574 47.5568 56.8574Z" fill="black"/>
<path d="M13.8378 10.3516C13.0628 10.3516 12.3984 9.69486 12.3984 8.9287V3.45617C12.3984 2.69002 13.0628 2.03332 13.8378 2.03332C14.6127 2.03332 15.277 2.69002 15.277 3.45617V8.9287C15.277 9.69486 14.6127 10.3516 13.8378 10.3516Z" fill="black"/>
<path d="M18.0732 10.3516C17.2983 10.3516 16.6328 9.69486 16.6328 8.9287V3.45617C16.6328 2.69002 17.2983 2.03332 18.0732 2.03332C18.8481 2.03332 19.5125 2.69002 19.5125 3.45617V8.9287C19.4019 9.69486 18.7365 10.3516 18.0732 10.3516Z" fill="black"/>
<path d="M22.119 10.3516C21.3429 10.3516 20.6797 9.69486 20.6797 8.9287V3.45617C20.6797 2.69002 21.3429 2.03332 22.119 2.03332C22.8939 2.03332 23.5571 2.69002 23.5571 3.45617V8.9287C23.5571 9.69486 22.8939 10.3516 22.119 10.3516Z" fill="black"/>
<path d="M26.3075 10.3516C25.5326 10.3516 24.8672 9.69486 24.8672 8.9287V3.45617C24.8672 2.69002 25.5326 2.03332 26.3075 2.03332C27.0824 2.03332 27.7457 2.69002 27.7457 3.45617V8.9287C27.6363 9.69486 26.9708 10.3516 26.3075 10.3516Z" fill="black"/>
<path d="M30.4716 10.3516C29.6956 10.3516 29.0312 9.69486 29.0312 8.9287V3.45617C29.0312 2.69002 29.6956 2.03332 30.4716 2.03332C31.2465 2.03332 31.9098 2.69002 31.9098 3.45617V8.9287C31.9098 9.69486 31.2465 10.3516 30.4716 10.3516Z" fill="black"/>
<path d="M34.706 10.3516C33.931 10.3516 33.2656 9.69486 33.2656 8.9287V3.45617C33.2656 2.69002 33.931 2.03332 34.706 2.03332C35.4809 2.03332 36.1452 2.69002 36.1452 3.45617V8.9287C36.0347 9.69486 35.3692 10.3516 34.706 10.3516Z" fill="black"/>
<path d="M38.7294 10.3516C37.9534 10.3516 37.2891 9.69486 37.2891 8.9287V3.45617C37.2891 2.69002 37.9534 2.03332 38.7294 2.03332C39.5044 2.03332 40.1676 2.69002 40.1676 3.45617V8.9287C40.1676 9.69486 39.5044 10.3516 38.7294 10.3516Z" fill="black"/>
<path d="M42.9326 10.3516C42.1577 10.3516 41.4922 9.69486 41.4922 8.9287V3.45617C41.4922 2.69002 42.1577 2.03332 42.9326 2.03332C43.7075 2.03332 44.3718 2.69002 44.3718 3.45617V8.9287C44.2602 9.69486 43.5958 10.3516 42.9326 10.3516Z" fill="black"/>
<path d="M47.0732 10.3516C46.2983 10.3516 45.6328 9.69486 45.6328 8.9287V3.45617C45.6328 2.69002 46.2983 2.03332 47.0732 2.03332C47.8481 2.03332 48.5113 2.69002 48.5113 3.45617V8.9287C48.5113 9.69486 47.8481 10.3516 47.0732 10.3516Z" fill="black"/>
<path d="M13.8378 62.3301C13.0628 62.3301 12.3984 61.6734 12.3984 60.9072V55.4347C12.3984 54.6685 13.0628 54.0118 13.8378 54.0118C14.6127 54.0118 15.277 54.6685 15.277 55.4347V60.9072C15.277 61.6734 14.6127 62.3301 13.8378 62.3301Z" fill="black"/>
<path d="M18.0732 62.3301C17.2983 62.3301 16.6328 61.6734 16.6328 60.9072V55.4347C16.6328 54.6685 17.2983 54.0118 18.0732 54.0118C18.8481 54.0118 19.5125 54.6685 19.5125 55.4347V60.9072C19.4019 61.6734 18.7365 62.3301 18.0732 62.3301Z" fill="black"/>
<path d="M22.119 62.3301C21.3429 62.3301 20.6797 61.6734 20.6797 60.9072V55.4347C20.6797 54.6685 21.3429 54.0118 22.119 54.0118C22.8939 54.0118 23.5571 54.6685 23.5571 55.4347V60.9072C23.5571 61.6734 22.8939 62.3301 22.119 62.3301Z" fill="black"/>
<path d="M26.3075 62.3301C25.5326 62.3301 24.8672 61.6734 24.8672 60.9072V55.4347C24.8672 54.6685 25.5326 54.0118 26.3075 54.0118C27.0824 54.0118 27.7457 54.6685 27.7457 55.4347V60.9072C27.6363 61.6734 26.9708 62.3301 26.3075 62.3301Z" fill="black"/>
<path d="M30.4716 62.3301C29.6956 62.3301 29.0312 61.6734 29.0312 60.9072V55.4347C29.0312 54.6685 29.6956 54.0118 30.4716 54.0118C31.2465 54.0118 31.9098 54.6685 31.9098 55.4347V60.9072C31.9098 61.6734 31.2465 62.3301 30.4716 62.3301Z" fill="black"/>
<path d="M34.706 62.3301C33.931 62.3301 33.2656 61.6734 33.2656 60.9072V55.4347C33.2656 54.6685 33.931 54.0118 34.706 54.0118C35.4809 54.0118 36.1452 54.6685 36.1452 55.4347V60.9072C36.0347 61.6734 35.3692 62.3301 34.706 62.3301Z" fill="black"/>
<path d="M38.7294 62.3301C37.9534 62.3301 37.2891 61.6734 37.2891 60.9072V55.4347C37.2891 54.6685 37.9534 54.0118 38.7294 54.0118C39.5044 54.0118 40.1676 54.6685 40.1676 55.4347V60.9072C40.1676 61.6734 39.5044 62.3301 38.7294 62.3301Z" fill="black"/>
<path d="M42.9326 62.3301C42.1577 62.3301 41.4922 61.6734 41.4922 60.9072V55.4347C41.4922 54.6685 42.1577 54.0118 42.9326 54.0118C43.7075 54.0118 44.3718 54.6685 44.3718 55.4347V60.9072C44.2602 61.6734 43.5958 62.3301 42.9326 62.3301Z" fill="black"/>
<path d="M47.0732 62.3301C46.2983 62.3301 45.6328 61.6734 45.6328 60.9072V55.4347C45.6328 54.6685 46.2983 54.0118 47.0732 54.0118C47.8481 54.0118 48.5113 54.6685 48.5113 55.4347V60.9072C48.5113 61.6734 47.8481 62.3301 47.0732 62.3301Z" fill="black"/>
<path d="M59.5534 17.2461H54.0185C53.2436 17.2461 52.5781 16.5894 52.5781 15.8232C52.5781 15.0571 53.2436 14.4004 54.0185 14.4004H59.5534C60.3283 14.4004 60.9938 15.0571 60.9938 15.8232C60.8822 16.5894 60.2178 17.2461 59.5534 17.2461Z" fill="black"/>
<path d="M59.5534 21.2969H54.0185C53.2436 21.2969 52.5781 20.6402 52.5781 19.874C52.5781 19.1079 53.2436 18.4512 54.0185 18.4512H59.5534C60.3283 18.4512 60.9938 19.1079 60.9938 19.874C60.8822 20.6402 60.2178 21.2969 59.5534 21.2969Z" fill="black"/>
<path d="M59.5534 25.4512H54.0185C53.2436 25.4512 52.5781 24.7945 52.5781 24.0283C52.5781 23.2622 53.2436 22.6055 54.0185 22.6055H59.5534C60.3283 22.6055 60.9938 23.2622 60.9938 24.0283C60.8822 24.7945 60.2178 25.4512 59.5534 25.4512Z" fill="black"/>
<path d="M59.5534 29.5H54.0185C53.2436 29.5 52.5781 28.8433 52.5781 28.0771C52.5781 27.311 53.2436 26.6543 54.0185 26.6543H59.5534C60.3283 26.6543 60.9938 27.311 60.9938 28.0771C60.8822 28.8433 60.2178 29.5 59.5534 29.5Z" fill="black"/>
<path d="M59.5534 33.6582H54.0185C53.2436 33.6582 52.5781 33.0015 52.5781 32.2353C52.5781 31.4692 53.2436 30.8125 54.0185 30.8125H59.5534C60.3283 30.8125 60.9938 31.4692 60.9938 32.2353C60.8822 33.0015 60.2178 33.6582 59.5534 33.6582Z" fill="black"/>
<path d="M59.5534 37.709H54.0185C53.2436 37.709 52.5781 37.0523 52.5781 36.2861C52.5781 35.52 53.2436 34.8633 54.0185 34.8633H59.5534C60.3283 34.8633 60.9938 35.52 60.9938 36.2861C60.9938 37.0523 60.2178 37.709 59.5534 37.709Z" fill="black"/>
<path d="M59.5534 41.8691H54.0185C53.2436 41.8691 52.5781 41.2124 52.5781 40.4463C52.5781 39.6801 53.2436 39.0234 54.0185 39.0234H59.5534C60.3283 39.0234 60.9938 39.6801 60.9938 40.4463C60.9938 41.2124 60.2178 41.8691 59.5534 41.8691Z" fill="black"/>
<path d="M59.5534 45.918H54.0185C53.2436 45.918 52.5781 45.2613 52.5781 44.4951C52.5781 43.729 53.2436 43.0723 54.0185 43.0723H59.5534C60.3283 43.0723 60.9938 43.729 60.9938 44.4951C60.9938 45.2613 60.2178 45.918 59.5534 45.918Z" fill="black"/>
<path d="M59.5534 50.0762H54.0185C53.2436 50.0762 52.5781 49.4195 52.5781 48.6533C52.5781 47.8872 53.2436 47.2305 54.0185 47.2305H59.5534C60.3283 47.2305 60.9938 47.8872 60.9938 48.6533C60.8822 49.4195 60.2178 50.0762 59.5534 50.0762Z" fill="black"/>
<path d="M6.97529 17.2461H1.43926C0.664355 17.2461 0 16.5894 0 15.8232C0 15.0571 0.664355 14.4004 1.43926 14.4004H6.97529C7.7502 14.4004 8.41455 15.0571 8.41455 15.8232C8.30291 16.5894 7.63965 17.2461 6.97529 17.2461Z" fill="black"/>
<path d="M6.97529 21.2969H1.43926C0.664355 21.2969 0 20.6402 0 19.874C0 19.1079 0.664355 18.4512 1.43926 18.4512H6.97529C7.7502 18.4512 8.41455 19.1079 8.41455 19.874C8.30291 20.6402 7.63965 21.2969 6.97529 21.2969Z" fill="black"/>
<path d="M6.97529 25.4512H1.43926C0.664355 25.4512 0 24.7945 0 24.0283C0 23.2622 0.664355 22.6055 1.43926 22.6055H6.97529C7.7502 22.6055 8.41455 23.2622 8.41455 24.0283C8.30291 24.7945 7.63965 25.4512 6.97529 25.4512Z" fill="black"/>
<path d="M6.97529 29.5H1.43926C0.664355 29.5 0 28.8433 0 28.0771C0 27.311 0.664355 26.6543 1.43926 26.6543H6.97529C7.7502 26.6543 8.41455 27.311 8.41455 28.0771C8.30291 28.8433 7.63965 29.5 6.97529 29.5Z" fill="black"/>
<path d="M6.97529 33.6582H1.43926C0.664355 33.6582 0 33.0015 0 32.2353C0 31.4692 0.664355 30.8125 1.43926 30.8125H6.97529C7.7502 30.8125 8.41455 31.4692 8.41455 32.2353C8.30291 33.0015 7.63965 33.6582 6.97529 33.6582Z" fill="black"/>
<path d="M6.97529 37.709H1.43926C0.664355 37.709 0 37.0523 0 36.2861C0 35.52 0.664355 34.8633 1.43926 34.8633H6.97529C7.7502 34.8633 8.41455 35.52 8.41455 36.2861C8.41455 37.0523 7.63965 37.709 6.97529 37.709Z" fill="black"/>
<path d="M6.97529 41.8691H1.43926C0.664355 41.8691 0 41.2124 0 40.4463C0 39.6801 0.664355 39.0234 1.43926 39.0234H6.97529C7.7502 39.0234 8.41455 39.6801 8.41455 40.4463C8.41455 41.2124 7.63965 41.8691 6.97529 41.8691Z" fill="black"/>
<path d="M6.97529 45.918H1.43926C0.664355 45.918 0 45.2613 0 44.4951C0 43.729 0.664355 43.0723 1.43926 43.0723H6.97529C7.7502 43.0723 8.41455 43.729 8.41455 44.4951C8.41455 45.2613 7.63965 45.918 6.97529 45.918Z" fill="black"/>
<path d="M6.97529 50.0762H1.43926C0.664355 50.0762 0 49.4195 0 48.6533C0 47.8872 0.664355 47.2305 1.43926 47.2305H6.97529C7.7502 47.2305 8.41455 47.8872 8.41455 48.6533C8.30291 49.4195 7.63965 50.0762 6.97529 50.0762Z" fill="black"/>
<path d="M30.1519 45.479H30.8162L31.4805 42.4149C31.591 41.8678 32.0342 41.5395 32.4763 41.43C33.5838 41.2112 34.5796 40.7734 35.466 40.2263C35.9081 39.898 36.4618 39.898 36.905 40.2263L39.6715 41.9772L40.1158 41.5395L38.344 38.8037C38.0113 38.3659 38.0113 37.8188 38.344 37.381C38.8967 36.5056 39.341 35.4113 39.562 34.4264C39.6715 33.8792 40.1157 33.5509 40.5578 33.4415L43.657 32.7849V32.1283L40.5578 31.4717C40.0041 31.3623 39.6715 30.9245 39.562 30.4868C39.341 29.3925 38.8967 28.4076 38.344 27.5321C38.0113 27.0944 38.0113 26.5472 38.344 26.1095L40.1158 23.3737L39.6715 22.936L36.905 24.6869C36.4618 25.0152 35.9081 25.0152 35.466 24.6869C34.5796 24.1397 33.5838 23.702 32.4763 23.4831C31.9226 23.3737 31.591 22.936 31.4805 22.4983L30.8162 19.4342H30.1519L29.4877 22.4983C29.3772 23.0454 28.934 23.3737 28.4919 23.4831C27.3844 23.702 26.3886 24.1397 25.5022 24.6869C25.0601 25.0152 24.5063 25.0152 24.0642 24.6869L21.2956 22.936L20.8535 23.3737L22.6241 26.1095C22.9568 26.5472 22.9568 27.0944 22.6241 27.5321C22.0704 28.4076 21.6283 29.5019 21.4061 30.4868C21.2956 31.034 20.8535 31.3623 20.4103 31.4717L17.3112 32.1283V32.7849L20.4103 33.4415C20.964 33.5509 21.2956 33.9886 21.4061 34.4264C21.6283 35.5207 22.0704 36.5056 22.6241 37.381C22.9568 37.8188 22.9568 38.3659 22.6241 38.8037L20.8535 41.5395L21.2956 41.9772L24.0642 40.2263C24.5063 39.898 25.0601 39.898 25.5022 40.2263C26.3886 40.7734 27.4949 41.2112 28.4919 41.43C29.0445 41.5395 29.3772 41.9772 29.4877 42.4149L30.1519 45.479ZM31.9226 48.2148H29.0445C28.3802 48.2148 27.8265 47.7771 27.7171 47.1205L26.9423 43.7281C26.1675 43.5093 25.3927 43.181 24.7274 42.8527L21.7388 44.713C21.1851 45.0413 20.5208 44.9319 19.9682 44.4941L17.9743 42.5244C17.5322 42.0866 17.4206 41.3206 17.7533 40.7734L19.6355 37.8188C19.3028 37.1622 18.9713 36.3962 18.7491 35.6301L15.3184 34.8641C14.6542 34.7547 14.2109 34.2075 14.2109 33.5509V30.7057C14.2109 30.0491 14.6542 29.5019 15.3184 29.3925L18.7491 28.6265C18.9713 27.8604 19.3028 27.0944 19.6355 26.4378L17.7533 23.4831C17.4206 22.936 17.5322 22.2794 17.9743 21.7322L19.9682 19.7624C20.4103 19.3247 21.1851 19.2153 21.7388 19.5436L24.7274 21.4039C25.3927 21.0756 26.1675 20.7473 26.9423 20.5285L27.7171 17.1361C27.8265 16.4795 28.3802 16.0417 29.0445 16.0417H31.9226C32.5879 16.0417 33.1417 16.4795 33.2511 17.1361L34.0258 20.5285C34.8006 20.7473 35.5765 21.0756 36.2408 21.4039L39.2294 19.5436C39.7831 19.2153 40.4462 19.3247 40.9999 19.7624L42.9938 21.7322C43.4359 22.17 43.5465 22.936 43.2149 23.4831L41.3326 26.4378C41.6653 27.0944 41.9969 27.8604 42.219 28.6265L45.6497 29.3925C46.3151 29.5019 46.7572 30.0491 46.7572 30.7057V33.5509C46.7572 34.2075 46.3151 34.7547 45.6497 34.8641L42.219 35.6301C41.9969 36.3962 41.6653 37.1622 41.3326 37.8188L43.2149 40.7734C43.5465 41.3206 43.4359 41.9772 42.9938 42.5244L40.9999 44.4941C40.5578 44.9319 39.7831 45.0413 39.2294 44.713L36.2408 42.8527C35.5765 43.181 34.8006 43.5093 34.0258 43.7281L33.2511 47.1205C33.1417 47.7771 32.5879 48.2148 31.9226 48.2148Z" fill="black"/>
<path d="M30.4128 28.0763C28.087 28.0763 26.2044 29.937 26.2044 32.2355C26.2044 34.5339 28.087 36.3946 30.4128 36.3946C32.7375 36.3946 34.6201 34.5339 34.6201 32.2355C34.6201 29.937 32.7375 28.0763 30.4128 28.0763ZM30.4128 39.1309C26.5371 39.1309 23.4375 36.0662 23.4375 32.2355C23.4375 28.4047 26.5371 25.3401 30.4128 25.3401C34.2873 25.3401 37.3881 28.4047 37.3881 32.2355C37.3881 36.0662 34.2873 39.1309 30.4128 39.1309Z" fill="black"/>
<path d="M4.20728 58.2814C3.43127 58.2814 2.76801 58.9381 2.76801 59.7042C2.76801 60.4704 3.43127 61.1271 4.20728 61.1271C4.98219 61.1271 5.64654 60.4704 5.64654 59.7042C5.536 58.8286 4.87164 58.2814 4.20728 58.2814ZM4.20728 63.7539C1.88145 63.7539 0 61.8932 0 59.5948C0 57.2963 1.88145 55.4357 4.20728 55.4357C6.53201 55.4357 8.30291 57.2963 8.30291 59.5948C8.30291 61.8932 6.42146 63.7539 4.20728 63.7539Z" fill="black"/>
<path d="M56.7854 3.56458C56.0105 3.56458 55.3472 4.22128 55.3472 4.98744C55.3472 5.75359 56.0105 6.4103 56.7854 6.4103C57.5603 6.4103 58.1141 5.64414 58.1141 4.87799C58.1141 4.11183 57.4509 3.56458 56.7854 3.56458ZM56.7854 9.03711C54.4607 9.03711 52.5781 7.17645 52.5781 4.87799C52.5781 2.57952 54.4607 0.718863 56.7854 0.718863C59.1112 0.718863 60.9938 2.57952 60.9938 4.87799C60.9938 7.17645 59.0007 9.03711 56.7854 9.03711Z" fill="black"/>
</svg>
