<svg width="16" height="17" viewBox="0 0 16 17" fill="none" xmlns="http://www.w3.org/2000/svg">
<path d="M7.97656 4.41544C10.1695 4.41544 11.9795 6.22547 11.9795 8.41838C11.9795 10.6461 10.1695 12.4213 7.97656 12.4213C5.74884 12.4213 3.97362 10.6461 3.97362 8.41838C3.97362 6.22547 5.74884 4.41544 7.97656 4.41544ZM7.97656 11.029C9.4037 11.029 10.5524 9.88033 10.5524 8.41838C10.5524 6.99125 9.4037 5.84258 7.97656 5.84258C6.51462 5.84258 5.36595 6.99125 5.36595 8.41838C5.36595 9.88033 6.54943 11.029 7.97656 11.029ZM13.0586 4.27621C13.0586 4.79833 12.6409 5.21603 12.1187 5.21603C11.5966 5.21603 11.1789 4.79833 11.1789 4.27621C11.1789 3.75408 11.5966 3.33638 12.1187 3.33638C12.6409 3.33638 13.0586 3.75408 13.0586 4.27621ZM15.704 5.21603C15.7736 6.50393 15.7736 10.3676 15.704 11.6555C15.6344 12.9086 15.3559 13.9877 14.4509 14.9275C13.5459 15.8325 12.432 16.111 11.1789 16.1806C9.89101 16.2502 6.0273 16.2502 4.7394 16.1806C3.4863 16.111 2.40725 15.8325 1.46742 14.9275C0.562411 13.9877 0.283945 12.9086 0.214329 11.6555C0.144712 10.3676 0.144712 6.50393 0.214329 5.21603C0.283945 3.96293 0.562411 2.84907 1.46742 1.94405C2.40725 1.03904 3.4863 0.760575 4.7394 0.690959C6.0273 0.621342 9.89101 0.621342 11.1789 0.690959C12.432 0.760575 13.5459 1.03904 14.4509 1.94405C15.3559 2.84907 15.6344 3.96293 15.704 5.21603ZM14.0332 13.0131C14.4509 12.0036 14.3465 9.56706 14.3465 8.41838C14.3465 7.30452 14.4509 4.86795 14.0332 3.8237C13.7547 3.16234 13.2326 2.60541 12.5712 2.36175C11.527 1.94405 9.09043 2.04848 7.97656 2.04848C6.82789 2.04848 4.39132 1.94405 3.38188 2.36175C2.68571 2.64022 2.16359 3.16234 1.88512 3.8237C1.46742 4.86795 1.57185 7.30452 1.57185 8.41838C1.57185 9.56706 1.46742 12.0036 1.88512 13.0131C2.16359 13.7092 2.68571 14.2314 3.38188 14.5098C4.39132 14.9275 6.82789 14.8231 7.97656 14.8231C9.09043 14.8231 11.527 14.9275 12.5712 14.5098C13.2326 14.2314 13.7895 13.7092 14.0332 13.0131Z" fill="#1B2534"/>
</svg>
