<svg width="17" height="16" viewBox="0 0 17 16" fill="none" xmlns="http://www.w3.org/2000/svg">
<path d="M8.73437 4.16934C10.9273 4.16934 12.7373 5.97937 12.7373 8.17229C12.7373 10.4 10.9273 12.1752 8.73437 12.1752C6.50665 12.1752 4.73143 10.4 4.73143 8.17229C4.73143 5.97937 6.50665 4.16934 8.73437 4.16934ZM8.73437 10.7829C10.1615 10.7829 11.3102 9.63424 11.3102 8.17229C11.3102 6.74515 10.1615 5.59648 8.73437 5.59648C7.27243 5.59648 6.12376 6.74515 6.12376 8.17229C6.12376 9.63424 7.30724 10.7829 8.73437 10.7829ZM13.8164 4.03011C13.8164 4.55223 13.3987 4.96993 12.8766 4.96993C12.3544 4.96993 11.9367 4.55223 11.9367 4.03011C11.9367 3.50799 12.3544 3.09029 12.8766 3.09029C13.3987 3.09029 13.8164 3.50799 13.8164 4.03011ZM16.4618 4.96993C16.5314 6.25784 16.5314 10.1216 16.4618 11.4095C16.3922 12.6626 16.1137 13.7416 15.2087 14.6814C14.3037 15.5864 13.1898 15.8649 11.9367 15.9345C10.6488 16.0041 6.78511 16.0041 5.49721 15.9345C4.24411 15.8649 3.16506 15.5864 2.22524 14.6814C1.32022 13.7416 1.04176 12.6626 0.972141 11.4095C0.902525 10.1216 0.902525 6.25784 0.972141 4.96993C1.04176 3.71684 1.32022 2.60297 2.22524 1.69796C3.16506 0.792947 4.24411 0.514481 5.49721 0.444865C6.78511 0.375248 10.6488 0.375248 11.9367 0.444865C13.1898 0.514481 14.3037 0.792947 15.2087 1.69796C16.1137 2.60297 16.3922 3.71684 16.4618 4.96993ZM14.791 12.767C15.2087 11.7575 15.1043 9.32096 15.1043 8.17229C15.1043 7.05843 15.2087 4.62185 14.791 3.5776C14.5125 2.91625 13.9904 2.35932 13.3291 2.11566C12.2848 1.69796 9.84824 1.80239 8.73437 1.80239C7.5857 1.80239 5.14913 1.69796 4.13969 2.11566C3.44353 2.39413 2.9214 2.91625 2.64294 3.5776C2.22524 4.62185 2.32966 7.05843 2.32966 8.17229C2.32966 9.32096 2.22524 11.7575 2.64294 12.767C2.9214 13.4631 3.44353 13.9853 4.13969 14.2637C5.14913 14.6814 7.5857 14.577 8.73437 14.577C9.84824 14.577 12.2848 14.6814 13.3291 14.2637C13.9904 13.9853 14.5473 13.4631 14.791 12.767Z" fill="white"/>
</svg>
