<svg width="15" height="16" viewBox="0 0 15 16" fill="none" xmlns="http://www.w3.org/2000/svg">
<path d="M3.48907 15.6016H0.422287V5.74168H3.48907V15.6016ZM1.93919 4.42263C0.982883 4.42263 0.191454 3.59822 0.191454 2.60894C0.191454 1.65263 0.982883 0.861197 1.93919 0.861197C2.92848 0.861197 3.71991 1.65263 3.71991 2.60894C3.71991 3.59822 2.92848 4.42263 1.93919 4.42263ZM14.9318 15.6016H11.898V10.82C11.898 9.66584 11.865 8.21489 10.2822 8.21489C8.69932 8.21489 8.46848 9.43501 8.46848 10.7211V15.6016H5.4017V5.74168H8.33658V7.0937H8.36955C8.79824 6.33525 9.78753 5.51084 11.2715 5.51084C14.3712 5.51084 14.9648 7.55537 14.9648 10.1935V15.6016H14.9318Z" fill="#1B2534"/>
</svg>
