<svg width="16" height="16" viewBox="0 0 16 16" fill="none" xmlns="http://www.w3.org/2000/svg">
<path d="M4.2547 15.3555H1.18791V5.49558H4.2547V15.3555ZM2.70482 4.17653C1.74851 4.17653 0.957079 3.35213 0.957079 2.36284C0.957079 1.40653 1.74851 0.615103 2.70482 0.615103C3.6941 0.615103 4.48553 1.40653 4.48553 2.36284C4.48553 3.35213 3.6941 4.17653 2.70482 4.17653ZM15.6974 15.3555H12.6636V10.5739C12.6636 9.41975 12.6307 7.9688 11.0478 7.9688C9.46494 7.9688 9.23411 9.18892 9.23411 10.475V15.3555H6.16732V5.49558H9.1022V6.84761H9.13518C9.56387 6.08915 10.5532 5.26475 12.0371 5.26475C15.1368 5.26475 15.7304 7.30927 15.7304 9.94737V15.3555H15.6974Z" fill="white"/>
</svg>
