<svg width="17" height="14" viewBox="0 0 17 14" fill="none" xmlns="http://www.w3.org/2000/svg">
<path d="M15.1473 3.59451C15.1473 3.75939 15.1473 3.8913 15.1473 4.05618C15.1473 8.63987 11.6848 13.8831 5.32039 13.8831C3.34181 13.8831 1.52812 13.3225 0.0112152 12.3332C0.275025 12.3662 0.538835 12.3992 0.83562 12.3992C2.45145 12.3992 3.93538 11.8386 5.12253 10.9152C3.60562 10.8823 2.31955 9.89297 1.89086 8.50797C2.12169 8.54094 2.31955 8.57392 2.55038 8.57392C2.84717 8.57392 3.17693 8.50797 3.44074 8.44201C1.85788 8.11225 0.670739 6.72725 0.670739 5.04546V5.01249C1.13241 5.2763 1.693 5.4082 2.2536 5.44118C1.29729 4.81463 0.703716 3.75939 0.703716 2.57225C0.703716 1.91272 0.868597 1.31915 1.16538 0.824509C2.88015 2.90201 5.45229 4.28701 8.32122 4.45189C8.25527 4.18808 8.22229 3.92427 8.22229 3.66046C8.22229 1.74784 9.77217 0.197961 11.6848 0.197961C12.6741 0.197961 13.5644 0.593675 14.224 1.28618C14.9824 1.12129 15.7409 0.824509 16.4004 0.428794C16.1366 1.2532 15.609 1.91272 14.8835 2.34141C15.576 2.27546 16.2685 2.0776 16.8621 1.8138C16.4004 2.5063 15.8068 3.09987 15.1473 3.59451Z" fill="white"/>
</svg>
