<svg width="18" height="15" viewBox="0 0 18 15" fill="none" xmlns="http://www.w3.org/2000/svg">
<path d="M15.3739 3.8406C15.3739 4.00549 15.3739 4.13739 15.3739 4.30227C15.3739 8.88596 11.9114 14.1292 5.54695 14.1292C3.56837 14.1292 1.75468 13.5686 0.237778 12.5793C0.501587 12.6123 0.765397 12.6453 1.06218 12.6453C2.67802 12.6453 4.16195 12.0847 5.34909 11.1613C3.83218 11.1283 2.54611 10.1391 2.11742 8.75406C2.34826 8.78704 2.54611 8.82001 2.77695 8.82001C3.07373 8.82001 3.40349 8.75406 3.6673 8.68811C2.08445 8.35835 0.897302 6.97334 0.897302 5.29156V5.25858C1.35897 5.52239 1.91956 5.6543 2.48016 5.68727C1.52385 5.06072 0.930278 4.00549 0.930278 2.81834C0.930278 2.15882 1.09516 1.56525 1.39195 1.0706C3.10671 3.1481 5.67885 4.5331 8.54778 4.69799C8.48183 4.43418 8.44885 4.17037 8.44885 3.90656C8.44885 1.99394 9.99874 0.444055 11.9114 0.444055C12.9006 0.444055 13.791 0.839769 14.4505 1.53227C15.209 1.36739 15.9674 1.0706 16.627 0.674888C16.3631 1.49929 15.8355 2.15882 15.11 2.58751C15.8025 2.52156 16.495 2.3237 17.0886 2.05989C16.627 2.75239 16.0334 3.34596 15.3739 3.8406Z" fill="#1B2534"/>
</svg>
