<svg width="36" height="36" viewBox="0 0 36 36" fill="none" xmlns="http://www.w3.org/2000/svg">
<rect x="0.578125" width="34.56" height="36" rx="3.6" fill="#091242" fill-opacity="0.25"/>
<path fill-rule="evenodd" clip-rule="evenodd" d="M13.7241 11.8788C11.7441 11.8788 11.7441 12.0286 11.7441 13.8588V13.8768C11.7441 14.6739 11.7441 15.2499 11.9392 15.4932C12.13 15.7294 12.6966 15.8388 13.7241 15.8388C14.7515 15.8388 15.3181 15.7287 15.5089 15.4925C15.7041 15.2499 15.7041 14.6739 15.7041 13.8761C15.7041 12.0286 15.7041 11.8788 13.7241 11.8788ZM13.7241 16.9188C12.5101 16.9188 11.5993 16.7914 11.0989 16.17C10.6641 15.6307 10.6641 14.8949 10.6641 13.8768L11.2041 13.8588H10.6641C10.6641 11.7924 10.7944 10.7988 13.7241 10.7988C16.6537 10.7988 16.7841 11.7924 16.7841 13.8588C16.7841 14.8942 16.7841 15.6307 16.3492 16.17C15.8488 16.7914 14.938 16.9188 13.7241 16.9188Z" fill="white"/>
<path fill-rule="evenodd" clip-rule="evenodd" d="M21.6459 11.8788C19.6659 11.8788 19.6659 12.0286 19.6659 13.8588V13.8768C19.6659 14.6739 19.6659 15.2499 19.8611 15.4932C20.0519 15.7294 20.6185 15.8388 21.6459 15.8388C22.6734 15.8388 23.24 15.7287 23.4308 15.4925C23.6259 15.2499 23.6259 14.6739 23.6259 13.8761C23.6259 12.0286 23.6259 11.8788 21.6459 11.8788ZM21.6459 16.9188C20.432 16.9188 19.5212 16.7914 19.0208 16.17C18.5859 15.6307 18.5859 14.8949 18.5859 13.8768L19.1259 13.8588H18.5859C18.5859 11.7924 18.7163 10.7988 21.6459 10.7988C24.5756 10.7988 24.7059 11.7924 24.7059 13.8588C24.7059 14.8942 24.7059 15.6307 24.2711 16.17C23.7707 16.7914 22.8599 16.9188 21.6459 16.9188Z" fill="white"/>
<path fill-rule="evenodd" clip-rule="evenodd" d="M13.7241 19.7988C11.7441 19.7988 11.7441 19.9485 11.7441 21.7788V21.7968C11.7441 22.5938 11.7441 23.1698 11.9392 23.4132C12.13 23.6493 12.6966 23.7587 13.7241 23.7587C14.7515 23.7587 15.3181 23.6486 15.5089 23.4124C15.7041 23.1698 15.7041 22.5938 15.7041 21.796C15.7041 19.9485 15.7041 19.7988 13.7241 19.7988ZM13.7241 24.8388C12.5101 24.8388 11.5993 24.7113 11.0989 24.09C10.6641 23.5507 10.6641 22.8148 10.6641 21.7968L11.2041 21.7788H10.6641C10.6641 19.7124 10.7944 18.7188 13.7241 18.7188C16.6537 18.7188 16.7841 19.7124 16.7841 21.7788C16.7841 22.8141 16.7841 23.5507 16.3492 24.09C15.8488 24.7113 14.938 24.8388 13.7241 24.8388Z" fill="white"/>
<path fill-rule="evenodd" clip-rule="evenodd" d="M21.6459 19.7988C19.6659 19.7988 19.6659 19.9485 19.6659 21.7788V21.7968C19.6659 22.5938 19.6659 23.1698 19.8611 23.4132C20.0519 23.6493 20.6185 23.7587 21.6459 23.7587C22.6734 23.7587 23.24 23.6486 23.4308 23.4124C23.6259 23.1698 23.6259 22.5938 23.6259 21.796C23.6259 19.9485 23.6259 19.7988 21.6459 19.7988ZM21.6459 24.8388C20.432 24.8388 19.5212 24.7113 19.0208 24.09C18.5859 23.5507 18.5859 22.8148 18.5859 21.7968L19.1259 21.7788H18.5859C18.5859 19.7124 18.7163 18.7188 21.6459 18.7188C24.5756 18.7188 24.7059 19.7124 24.7059 21.7788C24.7059 22.8141 24.7059 23.5507 24.2711 24.09C23.7707 24.7113 22.8599 24.8388 21.6459 24.8388Z" fill="white"/>
</svg>
