<svg width="163" height="59" viewBox="0 0 163 59" fill="none" xmlns="http://www.w3.org/2000/svg">
<rect width="162" height="58" transform="translate(0.242188 0.25)" fill="white"/>
<path d="M46.5315 33.13C46.4515 33.194 46.3315 33.246 46.1715 33.286C46.0115 33.326 45.8435 33.346 45.6675 33.346C45.4355 33.346 45.2555 33.314 45.1275 33.25C44.9995 33.178 44.8995 33.062 44.8275 32.902L43.7715 30.79C43.6195 30.486 43.4475 30.278 43.2555 30.166C43.0635 30.046 42.7875 29.986 42.4275 29.986H41.7435V33.25H40.2195V24.85H43.0395C44.0715 24.85 44.8715 25.074 45.4395 25.522C46.0075 25.97 46.2915 26.602 46.2915 27.418C46.2915 27.962 46.1435 28.43 45.8475 28.822C45.5595 29.206 45.1475 29.49 44.6115 29.674C44.8115 29.874 44.9955 30.134 45.1635 30.454L46.5315 33.13ZM42.9315 28.87C43.5475 28.87 44.0035 28.754 44.2995 28.522C44.5955 28.282 44.7435 27.914 44.7435 27.418C44.7435 26.922 44.5995 26.558 44.3115 26.326C44.0235 26.086 43.5715 25.966 42.9555 25.966H41.7435V28.87H42.9315ZM53.3804 29.506C53.3804 29.642 53.3644 29.87 53.3324 30.19H48.9164C48.9564 30.878 49.1164 31.41 49.3964 31.786C49.6764 32.162 50.0564 32.35 50.5364 32.35C50.8644 32.35 51.1324 32.286 51.3404 32.158C51.5564 32.022 51.8004 31.762 52.0724 31.378C52.1204 31.306 52.2044 31.27 52.3244 31.27C52.5484 31.27 52.8564 31.41 53.2484 31.69C53.0244 32.234 52.6764 32.65 52.2044 32.938C51.7404 33.226 51.1844 33.37 50.5364 33.37C49.5684 33.37 48.8044 33.066 48.2444 32.458C47.6924 31.842 47.4164 31.002 47.4164 29.938C47.4164 28.882 47.6964 28.05 48.2564 27.442C48.8164 26.834 49.5844 26.53 50.5604 26.53C51.4564 26.53 52.1484 26.79 52.6364 27.31C53.1324 27.83 53.3804 28.562 53.3804 29.506ZM51.9044 29.302C51.9044 28.11 51.4444 27.514 50.5244 27.514C50.0684 27.514 49.7044 27.666 49.4324 27.97C49.1684 28.266 49.0044 28.71 48.9404 29.302H51.9044ZM59.3113 26.602C59.6873 26.602 60.0633 26.714 60.4393 26.938C60.3193 27.122 60.2313 27.386 60.1753 27.73C60.1273 28.066 60.1033 28.518 60.1033 29.086V35.95H58.6513V32.758C58.1713 33.166 57.5873 33.37 56.8993 33.37C56.0433 33.37 55.3753 33.07 54.8953 32.47C54.4153 31.87 54.1753 31.03 54.1753 29.95C54.1753 29.262 54.2833 28.662 54.4993 28.15C54.7233 27.63 55.0393 27.23 55.4473 26.95C55.8633 26.67 56.3473 26.53 56.8993 26.53C57.3233 26.53 57.6833 26.59 57.9793 26.71C58.2833 26.822 58.5393 26.998 58.7473 27.238C58.8433 26.814 59.0313 26.602 59.3113 26.602ZM57.1753 32.398C57.7593 32.398 58.2513 32.166 58.6513 31.702V28.318V28.246C58.2833 27.742 57.8033 27.49 57.2113 27.49C56.6993 27.49 56.3113 27.698 56.0473 28.114C55.7913 28.53 55.6633 29.142 55.6633 29.95C55.6633 30.782 55.7873 31.398 56.0353 31.798C56.2833 32.198 56.6633 32.398 57.1753 32.398ZM67.6081 31.738C67.6081 32.066 67.6201 32.334 67.6441 32.542C67.6761 32.75 67.7241 32.93 67.7881 33.082C67.4841 33.234 67.1561 33.31 66.8041 33.31C66.5961 33.31 66.4401 33.25 66.3361 33.13C66.2401 33.01 66.1761 32.802 66.1441 32.506C65.9121 32.778 65.6161 32.99 65.2561 33.142C64.9041 33.294 64.5201 33.37 64.1041 33.37C63.4161 33.37 62.8921 33.182 62.5321 32.806C62.1801 32.43 62.0041 31.878 62.0041 31.15V26.65H63.4561V31.066C63.4561 31.546 63.5361 31.89 63.6961 32.098C63.8561 32.298 64.1201 32.398 64.4881 32.398C64.8161 32.398 65.1201 32.314 65.4001 32.146C65.6801 31.978 65.9241 31.734 66.1321 31.414V26.65H67.6081V31.738ZM75.0366 29.506C75.0366 29.642 75.0206 29.87 74.9886 30.19H70.5726C70.6126 30.878 70.7726 31.41 71.0526 31.786C71.3326 32.162 71.7126 32.35 72.1926 32.35C72.5206 32.35 72.7886 32.286 72.9966 32.158C73.2126 32.022 73.4566 31.762 73.7286 31.378C73.7766 31.306 73.8606 31.27 73.9806 31.27C74.2046 31.27 74.5126 31.41 74.9046 31.69C74.6806 32.234 74.3326 32.65 73.8606 32.938C73.3966 33.226 72.8406 33.37 72.1926 33.37C71.2246 33.37 70.4606 33.066 69.9006 32.458C69.3486 31.842 69.0726 31.002 69.0726 29.938C69.0726 28.882 69.3526 28.05 69.9126 27.442C70.4726 26.834 71.2406 26.53 72.2166 26.53C73.1126 26.53 73.8046 26.79 74.2926 27.31C74.7886 27.83 75.0366 28.562 75.0366 29.506ZM73.5606 29.302C73.5606 28.11 73.1006 27.514 72.1806 27.514C71.7246 27.514 71.3606 27.666 71.0886 27.97C70.8246 28.266 70.6606 28.71 70.5966 29.302H73.5606ZM78.3755 33.37C77.9035 33.37 77.4755 33.314 77.0915 33.202C76.7155 33.09 76.4155 32.938 76.1915 32.746C75.9755 32.546 75.8675 32.326 75.8675 32.086C75.8675 31.902 75.9315 31.746 76.0595 31.618C76.1875 31.482 76.3675 31.402 76.5995 31.378C76.7995 31.714 77.0435 31.966 77.3315 32.134C77.6275 32.294 77.9915 32.374 78.4235 32.374C78.8395 32.374 79.1435 32.29 79.3355 32.122C79.5355 31.946 79.6355 31.714 79.6355 31.426C79.6355 31.162 79.5155 30.962 79.2755 30.826C79.0435 30.69 78.6795 30.55 78.1835 30.406C77.7275 30.27 77.3515 30.138 77.0555 30.01C76.7595 29.874 76.5075 29.674 76.2995 29.41C76.0915 29.146 75.9875 28.806 75.9875 28.39C75.9875 28.006 76.0995 27.674 76.3235 27.394C76.5555 27.106 76.8555 26.89 77.2235 26.746C77.5995 26.602 77.9995 26.53 78.4235 26.53C78.9835 26.53 79.4755 26.638 79.8995 26.854C80.3315 27.07 80.6715 27.366 80.9195 27.742C80.8155 27.91 80.6875 28.054 80.5355 28.174C80.3915 28.286 80.2595 28.342 80.1395 28.342C80.0035 28.342 79.8875 28.282 79.7915 28.162C79.4235 27.722 78.9755 27.502 78.4475 27.502C78.1115 27.502 77.8475 27.574 77.6555 27.718C77.4635 27.854 77.3675 28.066 77.3675 28.354C77.3675 28.546 77.4315 28.706 77.5595 28.834C77.6875 28.954 77.8435 29.05 78.0275 29.122C78.2195 29.194 78.4875 29.278 78.8315 29.374C79.2875 29.502 79.6595 29.63 79.9475 29.758C80.2435 29.878 80.4955 30.066 80.7035 30.322C80.9115 30.578 81.0155 30.918 81.0155 31.342C81.0155 31.982 80.7835 32.482 80.3195 32.842C79.8555 33.194 79.2075 33.37 78.3755 33.37ZM85.7561 32.206C85.8281 32.238 85.8881 32.294 85.9361 32.374C85.9841 32.446 86.0081 32.534 86.0081 32.638C86.0081 32.798 85.9521 32.926 85.8401 33.022C85.7121 33.126 85.5201 33.21 85.2641 33.274C85.0161 33.338 84.7401 33.37 84.4361 33.37C83.8921 33.37 83.4561 33.222 83.1281 32.926C82.8081 32.622 82.6481 32.218 82.6481 31.714V27.622H81.5561V26.65H82.6481V24.85H84.1001V26.65H85.5041V27.622H84.1001V31.558C84.1001 31.862 84.1561 32.082 84.2681 32.218C84.3801 32.346 84.5601 32.41 84.8081 32.41C85.1121 32.41 85.4281 32.342 85.7561 32.206ZM96.9082 29.002C96.9082 29.946 96.7602 30.75 96.4642 31.414C96.1682 32.078 95.7402 32.574 95.1802 32.902C95.3722 33.134 95.6682 33.462 96.0682 33.886C95.8842 34.174 95.5882 34.318 95.1802 34.318C94.9802 34.318 94.8082 34.282 94.6642 34.21C94.5202 34.138 94.3922 34.03 94.2802 33.886C94.2242 33.822 94.0962 33.638 93.8962 33.334C93.7202 33.358 93.5282 33.37 93.3202 33.37C92.1842 33.37 91.3002 32.99 90.6682 32.23C90.0442 31.462 89.7322 30.386 89.7322 29.002C89.7322 27.642 90.0442 26.59 90.6682 25.846C91.3002 25.102 92.1842 24.73 93.3202 24.73C94.4562 24.73 95.3362 25.102 95.9602 25.846C96.5922 26.59 96.9082 27.642 96.9082 29.002ZM91.2922 29.002C91.2922 30.09 91.4522 30.898 91.7722 31.426C92.0922 31.946 92.5842 32.214 93.2482 32.23L92.6842 31.222H93.9562C94.0602 31.422 94.2082 31.658 94.4002 31.93C95.0322 31.474 95.3482 30.498 95.3482 29.002C95.3482 27.922 95.1842 27.13 94.8562 26.626C94.5282 26.122 94.0162 25.87 93.3202 25.87C92.6242 25.87 92.1122 26.122 91.7842 26.626C91.4562 27.13 91.2922 27.922 91.2922 29.002ZM103.924 31.738C103.924 32.066 103.936 32.334 103.96 32.542C103.992 32.75 104.04 32.93 104.104 33.082C103.8 33.234 103.472 33.31 103.12 33.31C102.912 33.31 102.756 33.25 102.652 33.13C102.556 33.01 102.492 32.802 102.46 32.506C102.228 32.778 101.932 32.99 101.572 33.142C101.22 33.294 100.836 33.37 100.42 33.37C99.7325 33.37 99.2085 33.182 98.8485 32.806C98.4965 32.43 98.3205 31.878 98.3205 31.15V26.65H99.7725V31.066C99.7725 31.546 99.8525 31.89 100.012 32.098C100.172 32.298 100.436 32.398 100.804 32.398C101.132 32.398 101.436 32.314 101.716 32.146C101.996 31.978 102.24 31.734 102.448 31.414V26.65H103.924V31.738ZM108.245 33.37C107.285 33.37 106.549 33.074 106.037 32.482C105.525 31.89 105.269 31.042 105.269 29.938C105.269 28.834 105.525 27.99 106.037 27.406C106.549 26.822 107.285 26.53 108.245 26.53C109.205 26.53 109.937 26.822 110.441 27.406C110.953 27.99 111.209 28.834 111.209 29.938C111.209 31.05 110.953 31.902 110.441 32.494C109.929 33.078 109.197 33.37 108.245 33.37ZM108.245 32.374C108.765 32.374 109.141 32.182 109.373 31.798C109.613 31.406 109.733 30.786 109.733 29.938C109.733 29.098 109.613 28.486 109.373 28.102C109.141 27.718 108.765 27.526 108.245 27.526C107.725 27.526 107.345 27.718 107.105 28.102C106.873 28.478 106.757 29.09 106.757 29.938C106.757 30.794 106.873 31.414 107.105 31.798C107.345 32.182 107.725 32.374 108.245 32.374ZM115.944 32.206C116.016 32.238 116.076 32.294 116.124 32.374C116.172 32.446 116.196 32.534 116.196 32.638C116.196 32.798 116.14 32.926 116.028 33.022C115.9 33.126 115.708 33.21 115.452 33.274C115.204 33.338 114.928 33.37 114.624 33.37C114.08 33.37 113.644 33.222 113.316 32.926C112.996 32.622 112.836 32.218 112.836 31.714V27.622H111.744V26.65H112.836V24.85H114.288V26.65H115.692V27.622H114.288V31.558C114.288 31.862 114.344 32.082 114.456 32.218C114.568 32.346 114.748 32.41 114.996 32.41C115.3 32.41 115.616 32.342 115.944 32.206ZM122.814 29.506C122.814 29.642 122.798 29.87 122.766 30.19H118.35C118.39 30.878 118.55 31.41 118.83 31.786C119.11 32.162 119.49 32.35 119.97 32.35C120.298 32.35 120.566 32.286 120.774 32.158C120.99 32.022 121.234 31.762 121.506 31.378C121.554 31.306 121.638 31.27 121.758 31.27C121.982 31.27 122.29 31.41 122.682 31.69C122.458 32.234 122.11 32.65 121.638 32.938C121.174 33.226 120.618 33.37 119.97 33.37C119.002 33.37 118.238 33.066 117.678 32.458C117.126 31.842 116.85 31.002 116.85 29.938C116.85 28.882 117.13 28.05 117.69 27.442C118.25 26.834 119.018 26.53 119.994 26.53C120.89 26.53 121.582 26.79 122.07 27.31C122.566 27.83 122.814 28.562 122.814 29.506ZM121.338 29.302C121.338 28.11 120.878 27.514 119.958 27.514C119.502 27.514 119.138 27.666 118.866 27.97C118.602 28.266 118.438 28.71 118.374 29.302H121.338Z" fill="#23212A"/>
</svg>
