<svg width="49" height="48" viewBox="0 0 49 48" fill="none" xmlns="http://www.w3.org/2000/svg">
<circle cx="24.5645" cy="24.0079" r="23.2289" fill="#111C55" stroke="#273270" stroke-width="0.749321"/>
<path d="M18.9252 16.9942C18.8243 16.9973 18.7251 17.0193 18.6335 17.0589C18.5419 17.0985 18.4597 17.1549 18.3918 17.2249C18.3238 17.2948 18.2716 17.3768 18.2381 17.466C18.2046 17.5551 18.1905 17.6497 18.1967 17.7441C18.2975 19.3625 18.7726 23.3116 21.0472 25.7743C23.7709 28.7415 27.3182 29.7638 30.9575 29.6127C31.1526 29.6018 31.336 29.522 31.4707 29.3893C31.6053 29.2566 31.6812 29.081 31.6831 28.8979V26.3057C31.6808 26.0638 31.5919 25.8297 31.4305 25.6409C31.2692 25.4521 31.0448 25.3195 30.7934 25.2645L28.9708 24.8869C28.7454 24.8418 28.5108 24.8612 28.2972 24.9425C28.0837 25.0237 27.9011 25.1632 27.7731 25.3427L27.37 25.9146C27.333 25.9669 27.2776 26.0055 27.2135 26.0237C27.1494 26.0419 27.0805 26.0386 27.0187 26.0144C26.0916 25.6394 22.3975 24.021 21.9916 21.2912C21.9836 21.2385 21.9925 21.1847 22.0171 21.1367C22.0417 21.0887 22.0809 21.0486 22.1298 21.0214L22.8611 20.6033C23.0617 20.4869 23.2193 20.3155 23.3125 20.1124C23.4057 19.9093 23.43 19.6842 23.3822 19.4677L22.982 17.7306C22.9235 17.4872 22.7768 17.2703 22.5668 17.1169C22.3568 16.9634 22.0966 16.8829 21.8303 16.889L18.9252 16.9942Z" stroke="#F6B426" stroke-width="0.749321"/>
</svg>
