<svg width="114" height="16" viewBox="0 0 114 16" fill="none" xmlns="http://www.w3.org/2000/svg">
<path d="M11.0569 2.27512C11.8797 2.27749 12.6682 2.59306 13.25 3.15293C13.8318 3.71279 14.1597 4.47145 14.1622 5.26322V11.2388C14.1597 12.0305 13.8318 12.7892 13.25 13.3491C12.6682 13.9089 11.8797 14.2245 11.0569 14.2269H4.84713C4.02433 14.2245 3.23593 13.9089 2.65411 13.3491C2.0723 12.7892 1.74435 12.0305 1.7419 11.2388V5.26322C1.74435 4.47145 2.0723 3.71279 2.65411 3.15293C3.23593 2.59306 4.02433 2.27749 4.84713 2.27512H11.0569ZM11.0569 1.08008H4.84713C2.45616 1.08008 0.5 2.96244 0.5 5.26322V11.2388C0.5 13.5395 2.45616 15.4219 4.84713 15.4219H11.0569C13.4479 15.4219 15.4041 13.5395 15.4041 11.2388V5.26322C15.4041 2.96244 13.4479 1.08008 11.0569 1.08008Z" fill="white"/>
<path d="M11.989 5.26343C11.8048 5.26343 11.6247 5.21086 11.4715 5.11237C11.3183 5.01387 11.1989 4.87388 11.1284 4.71009C11.0579 4.5463 11.0394 4.36607 11.0754 4.1922C11.1113 4.01832 11.2 3.8586 11.3303 3.73324C11.4606 3.60788 11.6266 3.52251 11.8073 3.48793C11.988 3.45334 12.1753 3.47109 12.3455 3.53894C12.5157 3.60678 12.6612 3.72167 12.7635 3.86907C12.8659 4.01648 12.9205 4.18978 12.9205 4.36707C12.9208 4.48485 12.8968 4.60152 12.8501 4.71039C12.8034 4.81926 12.7348 4.91817 12.6483 5.00146C12.5617 5.08474 12.4589 5.15076 12.3458 5.19572C12.2326 5.24067 12.1114 5.26369 11.989 5.26343ZM7.95258 5.86079C8.4439 5.86079 8.92418 6.00099 9.33269 6.26365C9.7412 6.52631 10.0596 6.89965 10.2476 7.33644C10.4356 7.77323 10.4848 8.25386 10.389 8.71755C10.2931 9.18125 10.0565 9.60718 9.70912 9.94148C9.36171 10.2758 8.91908 10.5035 8.43721 10.5957C7.95534 10.6879 7.45586 10.6406 7.00195 10.4597C6.54804 10.2787 6.16007 9.97235 5.88711 9.57925C5.61415 9.18615 5.46846 8.72398 5.46846 8.25121C5.46916 7.61744 5.73111 7.00982 6.19682 6.56168C6.66253 6.11354 7.29397 5.86147 7.95258 5.86079ZM7.95258 4.66575C7.21565 4.66575 6.49526 4.87603 5.88252 5.27001C5.26978 5.66398 4.7922 6.22395 4.51019 6.87911C4.22818 7.53427 4.15439 8.25518 4.29816 8.95069C4.44193 9.6462 4.7968 10.2851 5.31789 10.7865C5.83898 11.2879 6.5029 11.6294 7.22567 11.7678C7.94845 11.9061 8.69763 11.8351 9.37847 11.5637C10.0593 11.2924 10.6412 10.8328 11.0507 10.2432C11.4601 9.65355 11.6786 8.96034 11.6786 8.25121C11.6786 7.30028 11.286 6.38831 10.5873 5.71591C9.88851 5.0435 8.94079 4.66575 7.95258 4.66575Z" fill="white"/>
<path fill-rule="evenodd" clip-rule="evenodd" d="M48.8071 8.29469C48.8071 4.31163 45.3591 1.08203 41.1067 1.08203C36.8542 1.08203 33.4062 4.31163 33.4062 8.29469C33.4062 11.8946 36.2217 14.8785 39.9035 15.4201V10.3802H37.9478V8.29469H39.9035V6.70565C39.9035 4.8983 41.0534 3.89915 42.8121 3.89915C43.6547 3.89915 44.5361 4.04019 44.5361 4.04019V5.81534H43.5646C42.6086 5.81534 42.3095 6.3711 42.3095 6.94231V8.29469H44.445L44.104 10.3802H42.3098V15.4207C45.9916 14.8795 48.8071 11.8955 48.8071 8.29469Z" fill="white"/>
<path d="M81.1817 3.86576C80.6424 4.09992 80.0718 4.2542 79.4879 4.3237C80.1016 3.96465 80.563 3.39422 80.7858 2.71941C80.2056 3.05841 79.572 3.29626 78.912 3.42279C78.634 3.13172 78.2998 2.90017 77.9295 2.7422C77.5592 2.58424 77.1607 2.50317 76.7581 2.50391C75.1281 2.50391 73.809 3.80291 73.809 5.4042C73.8078 5.62694 73.8334 5.84901 73.8851 6.06567C72.7163 6.01092 71.5717 5.71296 70.5247 5.19087C69.4778 4.66878 68.5513 3.93405 67.8048 3.03369C67.5429 3.4749 67.4044 3.97831 67.4037 4.49131C67.4037 5.49699 67.9288 6.38593 68.7216 6.90673C68.2519 6.89559 67.7918 6.77135 67.3804 6.54456V6.58048C67.3804 7.98723 68.3987 9.15752 69.7466 9.4239C69.4931 9.49142 69.2319 9.52563 68.9696 9.52567C68.7835 9.52599 68.5978 9.50795 68.4152 9.47179C68.7899 10.6241 69.8805 11.4622 71.1723 11.4861C70.1226 12.2945 68.8338 12.7315 67.5086 12.7283C67.2733 12.7279 67.0383 12.7139 66.8047 12.6864C68.1529 13.5466 69.7201 14.0017 71.3197 13.9973C76.7518 13.9973 79.7195 9.57655 79.7195 5.74242C79.7195 5.61671 79.7162 5.491 79.7102 5.36828C80.2862 4.95885 80.7845 4.45004 81.1817 3.86576Z" fill="white"/>
<path d="M112.579 0.96875H100.424C99.76 0.96875 99.1797 1.44662 99.1797 2.10297V14.2845C99.1797 14.9444 99.76 15.5325 100.424 15.5325H112.575C113.243 15.5325 113.743 14.9405 113.743 14.2845V2.10297C113.747 1.44662 113.243 0.96875 112.579 0.96875ZM103.694 13.1084H101.608V6.62131H103.694V13.1084ZM102.723 5.63501H102.708C102.04 5.63501 101.608 5.13795 101.608 4.51574C101.608 3.88215 102.052 3.3968 102.734 3.3968C103.417 3.3968 103.835 3.87858 103.85 4.51574C103.85 5.13795 103.417 5.63501 102.723 5.63501ZM111.319 13.1084H109.233V9.56138C109.233 8.71161 108.929 8.131 108.174 8.131C107.598 8.131 107.256 8.52111 107.105 8.90113C107.048 9.03766 107.032 9.22361 107.032 9.41346V13.1084H104.946V6.62131H107.032V7.52407C107.336 7.09171 107.81 6.4695 108.914 6.4695C110.284 6.4695 111.32 7.37226 111.32 9.31854L111.319 13.1084Z" fill="white"/>
</svg>
