<svg width="66" height="61" viewBox="0 0 66 61" fill="none" xmlns="http://www.w3.org/2000/svg">
<path d="M43.7906 21.719H43.4706C43.2579 22.6664 42.8316 23.5085 42.4063 24.3507C40.5957 27.5087 37.0818 29.6141 33.1416 29.6141C29.2014 29.6141 25.7939 27.5087 23.877 24.3507C23.4506 23.5085 23.0254 22.6664 22.8117 21.719H22.4927H11.8438V52.0363H26.5392L27.9235 54.668H38.5724L39.9567 52.0363H54.4385V21.719H43.7906Z" fill="#ECF0F1"/>
<path d="M49.1802 33.6049V41.5H17.2344V33.6049H49.1802ZM39.9166 36.2366V38.8683H42.5788V36.2366H39.9166ZM38.5323 38.8683V36.2366H35.87V38.8683H38.5323ZM34.5921 38.8683V36.2366H31.9299V38.8683H34.5921ZM30.5456 38.8683V36.2366H27.8833V38.8683H30.5456ZM26.6054 38.8683V36.2366H23.9431V38.8683H26.6054ZM22.5589 38.8683V36.2366H19.8966V38.8683H22.5589ZM43.8568 38.8683H46.519V36.2366H43.8568V38.8683Z" fill="#F14742"/>
<path d="M59.8647 52.0361H63.9101C63.9101 55.7205 60.9289 58.668 57.2014 58.668H9.28213C7.47152 58.668 5.76827 57.9311 4.59663 56.7731C3.425 55.6152 2.67969 53.9309 2.67969 52.1413H6.61989H11.9444H26.6398L28.0241 54.773H38.6731L40.0573 52.1413H54.5391H59.8647V52.0361Z" fill="#FFD550"/>
<path d="M22.6062 16.4583H22.9252C22.7125 17.3005 22.6062 18.1426 22.6062 19.09C22.6062 20.0375 22.7125 20.8796 22.9252 21.7218H22.6062H11.9573V52.0391H6.63281V20.1427C6.63281 18.1426 8.33711 16.4583 10.3604 16.4583H22.6062Z" fill="#FFD550"/>
<path d="M59.9028 20.1427V52.0391H54.5773V21.7218H43.9294H43.6094C43.8231 20.8796 43.9294 20.0375 43.9294 19.09C43.9294 18.1426 43.8231 17.3005 43.6094 16.4583H43.9294H56.1753C58.1985 16.4583 59.9028 18.1426 59.9028 20.1427Z" fill="#FFD550"/>
<path d="M11.9044 5.92213C13.395 5.92213 14.5667 7.08008 14.5667 8.55384C14.5667 10.0276 13.395 11.1855 11.9044 11.1855C10.4138 11.1855 9.24219 10.0276 9.24219 8.55384C9.24219 7.08008 10.4138 5.92213 11.9044 5.92213Z" fill="#FFD550"/>
<path d="M53.9262 3.28781C55.7358 3.28781 57.2264 4.76157 57.2264 6.55113C57.2264 8.3407 55.7358 9.81445 53.9262 9.81445C52.1156 9.81445 50.625 8.3407 50.625 6.55113C50.625 4.76157 52.0093 3.28781 53.9262 3.28781Z" fill="#FFD550"/>
<path d="M43.5951 16.4584C43.8088 17.3005 43.9151 18.1427 43.9151 19.0901C43.9151 20.0375 43.8088 20.8797 43.5951 21.7218C43.3824 22.6692 42.9561 23.5114 42.5308 24.3535C40.7202 21.1955 37.2063 19.0901 33.2661 19.0901C35.0757 19.0901 36.5673 17.6163 36.5673 15.8268C36.5673 14.0372 35.0757 12.5635 33.2661 12.5635C31.4555 12.5635 29.9649 14.0372 29.9649 15.8268C29.9649 17.6163 31.4555 19.0901 33.2661 19.0901C29.3259 19.0901 25.9184 21.1955 24.0015 24.3535C23.5751 23.5114 23.1498 22.6692 22.9362 21.7218C22.7235 20.8797 22.6172 20.0375 22.6172 19.0901C22.6172 18.1427 22.7235 17.3005 22.9362 16.4584C24.1078 11.9318 28.2606 8.56326 33.2661 8.56326C38.2706 8.56326 42.4234 11.9318 43.5951 16.4584Z" fill="#FFD550"/>
<path d="M33.1319 19.0845C37.0721 19.0845 40.4796 21.1899 42.3965 24.3479C40.5859 27.506 37.0721 29.6113 33.1319 29.6113C29.1917 29.6113 25.7841 27.506 23.8672 24.3479C25.7841 21.1899 29.1917 19.0845 33.1319 19.0845Z" fill="#65B2FE"/>
<path d="M33.1449 12.5456C34.9545 12.5456 36.4462 14.0194 36.4462 15.8089C36.4462 17.5985 34.9545 19.0723 33.1449 19.0723C31.3343 19.0723 29.8438 17.5985 29.8438 15.8089C29.8438 14.0194 31.3343 12.5456 33.1449 12.5456Z" fill="#FFD8A8"/>
<path d="M45.2344 45.4074H47.8966V48.0391H45.2344V45.4074Z" fill="black"/>
<path d="M43.8125 36.2394H46.4747V38.8711H43.8125V36.2394Z" fill="black"/>
<path d="M44.7328 4.98097C44.9465 5.19151 45.1592 5.50731 45.1592 5.92839C45.1592 6.24419 45.0529 6.66526 44.7328 6.8758C44.4139 7.08634 44.2002 7.29688 43.7749 7.29688C43.0286 7.29688 42.3906 6.66526 42.3906 5.92839C42.3906 5.61258 42.497 5.19151 42.8159 4.98097C43.1359 4.77043 43.3486 4.5599 43.7749 4.5599C44.2002 4.5599 44.5202 4.77043 44.7328 4.98097Z" fill="black"/>
<path d="M41.2031 45.4074H43.8664V48.0391H41.2031V45.4074Z" fill="black"/>
<path d="M39.8516 36.2394H42.5138V38.8711H39.8516V36.2394Z" fill="black"/>
<path d="M18.6562 45.4074H39.9541V48.0391H18.6562V45.4074Z" fill="black"/>
<path d="M35.8203 36.2394H38.4826V38.8711H35.8203V36.2394Z" fill="black"/>
<path d="M31.8594 36.2394H34.5216V38.8711H31.8594V36.2394Z" fill="black"/>
<path d="M27.8281 36.2394H30.4904V38.8711H27.8281V36.2394Z" fill="black"/>
<path d="M28.7485 1.08624C28.9622 1.29678 29.1748 1.61258 29.1748 2.03365C29.1748 2.45473 29.0685 2.77053 28.7485 2.98107C28.4295 3.19161 28.1095 3.29688 27.7905 3.29688C27.0452 3.29688 26.4062 2.66526 26.4062 1.92839C26.4062 1.61258 26.5126 1.19151 26.8315 0.98097C27.1516 0.770433 27.3642 0.559896 27.7905 0.559896C28.2158 0.559896 28.5358 0.770433 28.7485 1.08624Z" fill="black"/>
<path d="M23.8672 36.2394H26.5294V38.8711H23.8672V36.2394Z" fill="black"/>
<path d="M19.8359 36.2394H22.4982V38.8711H19.8359V36.2394Z" fill="black"/>
<path d="M20.936 7.60988C21.1497 7.82041 21.3623 8.13622 21.3623 8.55729C21.3623 8.8731 21.256 9.29417 20.936 9.50471C20.617 9.71524 20.4033 9.92578 19.978 9.92578C19.2327 9.92578 18.5938 9.29417 18.5938 8.55729C18.5938 8.24149 18.7001 7.82041 19.019 7.60988C19.3391 7.39934 19.5517 7.1888 19.978 7.1888C20.4033 7.1888 20.7233 7.39934 20.936 7.60988Z" fill="black"/>
<path d="M33.2871 13.8115C32.2217 13.8115 31.2638 14.6536 31.2638 15.8115C31.2638 16.9695 32.1154 17.8116 33.2871 17.8116C34.4576 17.8116 35.3103 16.9695 35.3103 15.8115C35.3103 14.6536 34.3513 13.8115 33.2871 13.8115ZM33.2871 20.4434C30.7311 20.4434 28.6016 18.338 28.6016 15.8115C28.6016 13.2851 30.7311 11.1797 33.2871 11.1797C35.843 11.1797 37.9726 13.2851 37.9726 15.8115C37.9726 18.338 35.843 20.4434 33.2871 20.4434Z" fill="black"/>
<path d="M59.7483 53.2969C59.003 53.2969 58.363 52.6653 58.363 51.9284V20.1373C58.363 18.8741 57.2987 17.7162 55.9144 17.7162H43.7749C43.0286 17.7162 42.3906 17.0846 42.3906 16.3477C42.3906 15.6108 43.0286 14.9792 43.7749 14.9792H56.0208C58.7893 14.9792 61.1326 17.1898 61.1326 20.0321V51.9284C61.1326 52.6653 60.4936 53.2969 59.7483 53.2969Z" fill="black"/>
<path d="M54.4228 53.2969C53.6775 53.2969 53.0396 52.6653 53.0396 51.9284V23.0848H43.7749C43.0286 23.0848 42.3906 22.4532 42.3906 21.7164C42.3906 20.9795 43.0286 20.3479 43.7749 20.3479H54.4228C55.1681 20.3479 55.8071 20.9795 55.8071 21.7164V52.0337C55.8071 52.6653 55.1681 53.2969 54.4228 53.2969Z" fill="black"/>
<path d="M11.9858 53.2969C11.2405 53.2969 10.6016 52.6653 10.6016 51.9284V21.7164C10.6016 20.9795 11.2405 20.3479 11.9858 20.3479H22.6348C23.3801 20.3479 24.019 20.9795 24.019 21.7164C24.019 22.4532 23.3801 23.0848 22.6348 23.0848H13.2638V52.0337C13.3701 52.6653 12.7311 53.2969 11.9858 53.2969Z" fill="black"/>
<path d="M6.59522 53.2969C5.84992 53.2969 5.21094 52.6653 5.21094 51.9284V20.1373C5.21094 17.4004 7.44684 15.0844 10.3228 15.0844H22.5686C23.3139 15.0844 23.9529 15.7161 23.9529 16.4529C23.9529 17.1898 23.3139 17.8214 22.5686 17.8214H10.3228C9.04482 17.8214 7.87318 18.8741 7.87318 20.2426V52.1389C7.9795 52.6653 7.34052 53.2969 6.59522 53.2969Z" fill="black"/>
<path d="M4.12487 53.2958C4.33752 54.2432 4.87018 54.9801 5.50915 55.717C6.46815 56.6644 7.85243 57.296 9.23671 57.296H57.1559C59.6055 57.296 61.7351 55.6117 62.2678 53.2958H40.6509L39.6919 55.1907C39.4793 55.6117 39.054 55.9275 38.5213 55.9275H27.8724C27.3397 55.9275 26.9134 55.6117 26.7007 55.1907L25.7417 53.2958H4.12487ZM57.1559 59.9277H9.23671C7.10713 59.9277 5.08387 59.0856 3.59222 57.6118C2.10162 56.1381 1.25 54.138 1.25 52.0326C1.25 51.2957 1.88897 50.6641 2.63427 50.6641H26.5944C27.1271 50.6641 27.5524 50.9799 27.765 51.401L28.724 53.2958H37.776L38.734 51.401C38.9466 50.9799 39.3729 50.6641 39.9056 50.6641H63.8647C64.611 50.6641 65.25 51.2957 65.25 52.0326C65.1426 56.3486 61.5225 59.9277 57.1559 59.9277Z" fill="black"/>
<path d="M23.9822 25.7227C23.7696 25.7227 23.5559 25.6174 23.3432 25.5121C22.7043 25.1963 22.4916 24.3542 22.8106 23.7226C24.9402 20.0382 28.8803 17.8275 33.1395 17.8275C37.3997 17.8275 41.3399 20.1434 43.4695 23.7226C43.7895 24.3542 43.5758 25.1963 42.9368 25.5121C42.2978 25.8279 41.4462 25.6174 41.1262 24.9858C39.423 22.1435 36.3344 20.354 33.0332 20.354C29.733 20.354 26.6444 22.1435 24.9401 24.9858C24.9401 25.4069 24.5149 25.7227 23.9822 25.7227Z" fill="black"/>
<path d="M33.2285 9.92874C28.9683 9.92874 25.2418 12.771 24.1765 16.8765C23.9639 17.6133 23.8575 18.3502 23.8575 19.1924C23.8575 19.9292 23.9639 20.7714 24.1765 21.5083C24.3902 22.3504 24.7092 23.0873 25.1355 23.8242C26.8387 26.6664 29.9273 28.456 33.2285 28.456C36.5297 28.456 39.6173 26.6664 41.3216 23.8242C41.7468 23.0873 42.0668 22.3504 42.2795 21.5083C42.4932 20.7714 42.5995 20.0345 42.5995 19.1924C42.5995 18.4555 42.4932 17.6133 42.2795 16.8765C41.2142 12.6657 37.4877 9.92874 33.2285 9.92874ZM33.2285 30.9824C28.9683 30.9824 25.0281 28.6665 22.8985 25.0874C22.3669 24.14 21.9406 23.1926 21.6206 22.1399C21.4079 21.1925 21.1953 20.1398 21.1953 19.1924C21.1953 18.2449 21.3016 17.1923 21.6206 16.2448C23.0059 10.9814 27.7967 7.4023 33.2285 7.4023C38.6593 7.4023 43.4511 11.0867 44.8354 16.2448C45.0491 17.1923 45.2617 18.2449 45.2617 19.1924C45.2617 20.1398 45.1554 21.1925 44.8354 22.1399C44.5164 23.1926 44.1964 24.14 43.5575 25.0874C41.4279 28.6665 37.4877 30.9824 33.2285 30.9824Z" fill="black"/>
<path d="M18.5733 40.1281H47.8579V34.8646H18.5733V40.1281ZM49.1348 42.7598H17.189C16.4437 42.7598 15.8047 42.1282 15.8047 41.3913V33.4961C15.8047 32.7593 16.4437 32.1277 17.189 32.1277H49.1348C49.8811 32.1277 50.5201 32.7593 50.5201 33.4961V41.3913C50.5201 42.1282 49.8811 42.7598 49.1348 42.7598Z" fill="black"/>
<path d="M11.8668 7.29322C11.1215 7.29322 10.4826 7.92483 10.4826 8.66171C10.4826 9.39859 11.1215 10.0302 11.8668 10.0302C12.6121 10.0302 13.2511 9.39859 13.2511 8.66171C13.2511 7.81956 12.6121 7.29322 11.8668 7.29322ZM11.8668 12.5566C9.63092 12.5566 7.82031 10.7671 7.82031 8.55644C7.82031 6.34581 9.63092 4.55624 11.8668 4.55624C14.1027 4.55624 15.9134 6.34581 15.9134 8.55644C15.9134 10.7671 14.1027 12.5566 11.8668 12.5566Z" fill="black"/>
<path d="M53.8819 4.65891C52.8165 4.65891 51.8586 5.50105 51.8586 6.65901C51.8586 7.81696 52.7102 8.65911 53.8819 8.65911C55.0524 8.65911 55.9041 7.81696 55.9041 6.65901C55.9041 5.50105 54.9461 4.65891 53.8819 4.65891ZM53.8819 11.1855C51.3259 11.1855 49.1953 9.08018 49.1953 6.55374C49.1953 4.0273 51.3259 1.92193 53.8819 1.92193C56.4367 1.92193 58.5674 4.0273 58.5674 6.55374C58.5674 9.08018 56.4367 11.1855 53.8819 11.1855Z" fill="black"/>
</svg>
