<svg width="59" height="60" viewBox="0 0 59 60" fill="none" xmlns="http://www.w3.org/2000/svg">
<path d="M50.4559 6.21361H5.75248C3.55555 6.21361 1.83594 7.9133 1.83594 10.0851V19.6222V29.0649V36.9023H16.5467H21.6092H54.3727V10.0851C54.3727 7.9133 52.6532 6.21361 50.4559 6.21361Z" fill="#ECF0F1"/>
<path d="M27.3727 29.8203V32.9364L22.6927 33.9751C22.5016 35.0138 22.1194 35.9581 21.6418 36.9023H16.5793C17.0569 35.8636 17.3431 34.6361 17.3431 33.3141C17.3431 28.7816 13.6177 25.0046 8.93732 25.0046C5.88063 25.0046 3.20608 26.6098 1.77344 28.9705V19.5278L4.54354 21.3219C5.68951 20.5665 6.93151 20.0944 8.36415 19.7167L9.41493 15.0897H12.5672L13.6177 19.7167C14.9551 19.9999 16.2922 20.5665 17.4387 21.3219L21.4507 18.7724L23.648 20.9442L21.0686 24.9101C21.8324 26.0433 22.3101 27.2708 22.5971 28.6872L27.3727 29.8203Z" fill="#FFD550"/>
<path d="M50.1087 46.335C51.7442 46.335 53.0699 47.6456 53.0699 49.2622C53.0699 50.8798 51.7442 52.1895 50.1087 52.1895C48.4732 52.1895 47.1484 50.8798 47.1484 49.2622C47.1484 47.6456 48.4732 46.335 50.1087 46.335Z" fill="#FFD550"/>
<path d="M7.80984 47.5658C9.14654 47.5658 10.1974 48.6045 10.1974 49.9264C10.1974 51.2484 9.14654 52.2871 7.80984 52.2871C6.472 52.2871 5.42188 51.2484 5.42188 49.9264C5.42188 48.6045 6.472 47.5658 7.80984 47.5658Z" fill="#FFD550"/>
<path d="M38.9346 49.9271C40.2726 49.9271 41.3236 50.9658 41.3236 52.2878C41.3236 52.9488 41.0365 53.5153 40.6541 53.9874C40.1773 54.4596 39.6041 54.6484 38.9346 54.6484H17.4427C16.1056 54.6484 15.0547 53.6097 15.0547 52.2878C15.0547 51.6268 15.3413 51.0602 15.723 50.5881C16.2011 50.1159 16.7739 49.9271 17.4427 49.9271H22.2186H34.1594H38.9346Z" fill="#FFD550"/>
<path d="M54.3727 36.8897V38.8726C54.3727 41.0445 52.6532 42.7441 50.4559 42.7441H30.4927H25.7164H5.75248C3.55555 42.7441 1.83594 41.0445 1.83594 38.8726V36.8897H16.5467H21.6092H54.3727Z" fill="#FFD550"/>
<path d="M32.8594 26.3249H49.5758V28.6855H32.8594V26.3249Z" fill="black"/>
<path d="M47.1484 19.2389H49.5356V21.5996H47.1484V19.2389Z" fill="black"/>
<path d="M44.8203 31.0358H47.2093V33.3965H44.8203V31.0358Z" fill="black"/>
<path d="M32.8594 19.2389H46.0414V21.5996H32.8594V19.2389Z" fill="black"/>
<path d="M44.4213 0.631593C44.613 0.820447 44.8037 1.10373 44.8037 1.48143C44.8037 1.85914 44.7084 2.14242 44.4213 2.33128C44.2306 2.52013 43.9445 2.70898 43.562 2.70898C42.8935 2.70898 42.3203 2.14242 42.3203 1.48143C42.3203 1.19815 42.4157 0.820447 42.7027 0.631593C42.8935 0.442739 43.1805 0.253886 43.562 0.253886C43.9445 0.348312 44.2306 0.442739 44.4213 0.631593Z" fill="black"/>
<path d="M44.4213 46.7156C44.613 46.9044 44.8037 47.1877 44.8037 47.5654C44.8037 47.8487 44.7084 48.2264 44.4213 48.4153C44.2306 48.6041 43.9445 48.793 43.562 48.793C42.8935 48.793 42.3203 48.2264 42.3203 47.5654C42.3203 47.2821 42.4157 46.9044 42.7027 46.7156C42.8935 46.5267 43.1805 46.3379 43.562 46.3379C43.9445 46.3379 44.2306 46.4323 44.4213 46.7156Z" fill="black"/>
<path d="M41.3125 31.0358H43.6996V33.3965H41.3125V31.0358Z" fill="black"/>
<path d="M35.2969 22.7331H43.7018V25.0938H35.2969V22.7331Z" fill="black"/>
<path d="M32.8594 31.0358H40.0235V33.3965H32.8594V31.0358Z" fill="black"/>
<path d="M21.7416 1.85883C21.9331 2.04769 22.1238 2.33097 22.1238 2.70867C22.1238 3.08638 22.0286 3.36966 21.7416 3.55852C21.4554 3.74737 21.1688 3.8418 20.8822 3.8418C20.2135 3.8418 19.6406 3.27524 19.6406 2.61425C19.6406 2.33097 19.7362 1.95326 20.0224 1.76441C20.309 1.57555 20.5001 1.3867 20.8822 1.3867C21.264 1.3867 21.551 1.57555 21.7416 1.85883Z" fill="black"/>
<path d="M14.6561 45.489C14.8476 45.6779 15.0382 45.9611 15.0382 46.3389C15.0382 46.6221 14.9426 46.9998 14.6561 47.1887C14.3699 47.3776 14.1785 47.5664 13.7967 47.5664C13.1276 47.5664 12.5547 46.9998 12.5547 46.3389C12.5547 46.0556 12.6502 45.6779 12.9365 45.489C13.2234 45.3002 13.4145 45.1113 13.7967 45.1113C14.1785 45.1113 14.465 45.3002 14.6561 45.489Z" fill="black"/>
<path d="M54.3642 38.1191H1.82746C1.15911 38.1191 0.585938 37.5526 0.585938 36.8916C0.585938 36.2306 1.15911 35.664 1.82746 35.664H54.3642C55.0328 35.664 55.6059 36.2306 55.6059 36.8916C55.6059 37.5526 55.0328 38.1191 54.3642 38.1191Z" fill="black"/>
<path d="M34.138 51.0586C33.6602 51.0586 33.2777 50.7753 33.087 50.3976L29.4569 43.3156C29.1707 42.749 29.3614 41.9936 30.0297 41.7103C30.603 41.4271 31.3675 41.6159 31.6536 42.2769L35.2843 49.3589C35.5704 49.9255 35.3797 50.6809 34.7111 50.9642C34.4241 51.0586 34.2333 51.0586 34.138 51.0586Z" fill="black"/>
<path d="M22.0713 51.0586C21.8799 51.0586 21.6892 51.0586 21.4981 50.9642C20.9249 50.6809 20.6383 49.9255 20.9249 49.3589L24.5544 42.2769C24.8414 41.7103 25.6053 41.4271 26.1786 41.7103C26.7517 41.9936 27.0383 42.749 26.7517 43.3156L23.1218 50.3976C22.9307 50.7753 22.549 51.0586 22.0713 51.0586Z" fill="black"/>
<path d="M17.442 51.0599C17.1558 51.0599 16.8688 51.1543 16.5826 51.4376C16.3911 51.6265 16.2005 52.0042 16.2005 52.2875C16.2005 52.9484 16.7732 53.515 17.442 53.515H38.9339C39.221 53.515 39.5071 53.4206 39.7941 53.1373C39.9849 52.9484 40.1766 52.6652 40.1766 52.2875C40.1766 51.6265 39.6034 51.0599 38.9339 51.0599H17.442ZM38.9339 55.7812H17.442C15.4362 55.7812 13.8125 54.176 13.8125 52.193C13.8125 51.2488 14.1943 50.3989 14.8634 49.6435C15.5317 48.9825 16.487 48.6048 17.442 48.6048H38.9339C40.9405 48.6048 42.5637 50.2101 42.5637 52.193C42.5637 53.1373 42.1822 53.9871 41.5137 54.7426C40.7497 55.4035 39.8895 55.7812 38.9339 55.7812Z" fill="black"/>
<path d="M21.5756 38.1191C21.3844 38.1191 21.1934 38.1191 21.0024 38.0247C20.4291 37.7414 20.2381 36.986 20.5247 36.4195C21.0024 35.5696 21.2886 34.7198 21.48 33.7755C21.5756 33.3034 21.9577 33.0201 22.3395 32.9257L26.0649 32.0758V30.8483L22.3395 29.9984C21.8618 29.904 21.5756 29.5263 21.48 29.1486C21.1934 27.921 20.7153 26.7879 20.047 25.7492C19.7608 25.3715 19.7608 24.8994 20.047 24.5217L22.1484 21.3112L21.2886 20.4613L18.0412 22.5387C17.659 22.822 17.1814 22.822 16.7993 22.5387C15.7484 21.8777 14.6023 21.4056 13.3608 21.1223C12.8827 21.0279 12.5965 20.6502 12.5009 20.2725L11.6412 16.5898H10.3996L9.53981 20.2725C9.44425 20.7446 9.06211 21.0279 8.68034 21.1223C7.43806 21.4056 6.292 21.8777 5.24112 22.5387C4.85907 22.822 4.38174 22.822 3.9996 22.5387L1.22949 20.7446C0.656319 20.3669 0.465196 19.7059 0.846964 19.1393C1.22949 18.5728 1.89784 18.3839 2.47111 18.7616L4.66795 20.0836C5.52818 19.6115 6.4835 19.2338 7.43806 18.9505L8.29791 14.9846C8.39338 14.418 8.87108 14.0403 9.44425 14.0403H12.5965C13.1697 14.0403 13.6474 14.418 13.7429 14.9846L14.6023 18.9505C15.5576 19.2338 16.513 19.6115 17.3724 20.0836L20.8116 17.9118C21.2886 17.6285 21.8618 17.7229 22.3395 18.1006L24.5363 20.2725C24.9185 20.6502 25.014 21.3112 24.7278 21.7833L22.5309 25.1827C23.0086 26.0325 23.3904 26.9768 23.6769 27.921L27.5934 28.7709C28.1667 28.8653 28.5487 29.3374 28.5487 29.904V33.0201C28.5487 33.5866 28.1667 34.0588 27.5934 34.1532L23.6769 35.0031C23.3904 35.8529 23.1037 36.7027 22.6264 37.5526C22.4353 37.8359 21.9577 38.1191 21.5756 38.1191Z" fill="black"/>
<path d="M16.513 38.1191C16.3215 38.1191 16.1309 38.1191 16.0353 38.0247C15.4622 37.7414 15.1755 37.0804 15.4622 36.4195C15.9398 35.4752 16.1309 34.4365 16.1309 33.3978C16.1309 29.5263 12.8827 26.3158 8.96664 26.3158C6.38718 26.3158 4.09516 27.6378 2.85316 29.7151C2.47111 30.2817 1.80228 30.4706 1.22949 30.0929C0.656319 29.7151 0.465196 29.0542 0.846964 28.4876C2.56657 25.6548 5.62326 23.9551 9.0621 23.9551C14.3161 23.9551 18.614 28.2043 18.614 33.3978C18.614 34.8142 18.3277 36.1362 17.659 37.4582C17.3724 37.8359 16.9907 38.1191 16.513 38.1191Z" fill="black"/>
<path d="M5.74401 7.43142C4.21552 7.43142 2.9739 8.65897 2.9739 10.1698V38.97C2.9739 40.4808 4.21552 41.7084 5.74401 41.7084H50.4474C51.9762 41.7084 53.2179 40.4808 53.2179 38.97V10.0754C53.2179 8.56454 51.9762 7.33699 50.4474 7.33699H5.74401V7.43142ZM50.4474 43.9746H5.74401C2.87834 43.9746 0.585938 41.7084 0.585938 38.8756V10.0754C0.585938 7.24256 2.87834 4.97632 5.74401 4.97632H50.4474C53.3133 4.97632 55.6059 7.24256 55.6059 10.0754V38.8756C55.6059 41.7084 53.2179 43.9746 50.4474 43.9746Z" fill="black"/>
<path d="M46.0614 16.877C45.7753 16.877 45.4882 16.7825 45.2021 16.4992C44.7243 16.0271 44.7243 15.2717 45.2021 14.7996L46.7309 13.2887L45.2021 11.7779C44.7243 11.3058 44.7243 10.5504 45.2021 10.0782C45.6799 9.60608 46.4438 9.60608 46.9216 10.0782L49.3097 12.4389C49.7865 12.911 49.7865 13.6664 49.3097 14.1386L46.9216 16.4992C46.6346 16.6881 46.3484 16.877 46.0614 16.877Z" fill="black"/>
<path d="M36.4885 16.877C36.2024 16.877 35.9163 16.7825 35.6292 16.4992L33.2412 14.1386C32.7634 13.6664 32.7634 12.911 33.2412 12.4389L35.6292 10.0782C36.107 9.60608 36.8709 9.60608 37.3487 10.0782C37.8256 10.5504 37.8256 11.3058 37.3487 11.7779L35.7246 13.2887L37.2534 14.7996C37.7302 15.2717 37.7302 16.0271 37.2534 16.4992C37.0617 16.6881 36.7756 16.877 36.4885 16.877Z" fill="black"/>
<path d="M40.0554 16.877C39.8647 16.877 39.674 16.877 39.4823 16.7825C38.9091 16.4992 38.623 15.7438 38.9091 15.1773L41.2981 10.4559C41.5842 9.88937 42.3481 9.60608 42.9213 9.88937C43.4945 10.1726 43.7806 10.9281 43.4945 11.4946L41.1064 16.216C40.9157 16.5937 40.5332 16.877 40.0554 16.877Z" fill="black"/>
<path d="M7.7943 48.6986C7.12557 48.6986 6.5524 49.2651 6.5524 49.9261C6.5524 50.5871 7.12557 51.1537 7.7943 51.1537C8.46266 51.1537 9.03582 50.5871 9.03582 49.9261C8.94036 49.2651 8.3671 48.6986 7.7943 48.6986ZM7.7943 53.4199C5.78811 53.4199 4.16406 51.8147 4.16406 49.8317C4.16406 47.8487 5.78811 46.2435 7.7943 46.2435C9.80012 46.2435 11.4242 47.8487 11.4242 49.8317C11.4242 51.8147 9.70456 53.4199 7.7943 53.4199Z" fill="black"/>
<path d="M50.2108 47.5655C49.2561 47.5655 48.3959 48.3209 48.3959 49.3596C48.3959 50.3983 49.1598 51.1537 50.2108 51.1537C51.2617 51.1537 52.0256 50.3983 52.0256 49.3596C52.0256 48.3209 51.2617 47.5655 50.2108 47.5655ZM50.2108 53.4199C47.919 53.4199 46.0078 51.5314 46.0078 49.2651C46.0078 46.9989 47.919 45.1104 50.2108 45.1104C52.5034 45.1104 54.4137 46.9989 54.4137 49.2651C54.4137 51.5314 52.5034 53.4199 50.2108 53.4199Z" fill="black"/>
</svg>
