<svg width="61" height="57" viewBox="0 0 61 57" fill="none" xmlns="http://www.w3.org/2000/svg">
<path d="M55.0298 47.8706H58.7602C58.7602 51.2671 56.012 53.9844 52.5756 53.9844H8.39911C6.73092 53.9844 5.15977 53.3051 4.07967 52.2376C2.99957 51.1701 2.3125 49.6174 2.3125 47.9676H5.94488H10.8534H24.4008L25.6769 50.3937H35.4939L36.771 47.9676H50.1204H55.0298V47.8706Z" fill="#FFD550"/>
<path d="M17.054 15.158V20.0102H10.8694V47.959H5.96094V18.5546C5.96094 16.7107 7.53208 15.158 9.39727 15.158H17.054Z" fill="#FFD550"/>
<path d="M54.9847 18.5546V47.959H50.0753V20.0102H43.8906V15.158H51.5484C53.4136 15.158 54.9847 16.6137 54.9847 18.5546Z" fill="#FFD550"/>
<path d="M50.0405 20.0191V47.9678H36.5921L35.3159 50.2969H25.4989L24.2228 47.8708H10.7734V20.0191H16.9581V34.9639C16.9581 36.7107 18.4312 38.1663 20.1974 38.1663H40.6175C42.3846 38.1663 43.8558 36.7107 43.8558 34.9639V20.0191H50.0405Z" fill="white"/>
<path d="M17.0469 13.8991V34.9577C17.0469 36.7045 18.52 38.1602 20.2862 38.1602H40.7063C42.4734 38.1602 43.9446 36.7045 43.9446 34.9577V20.0129V15.1607V13.8991H17.0469Z" fill="white"/>
<path d="M40.7063 6.62207H20.2862C18.52 6.62207 17.0469 8.07773 17.0469 9.82453V13.9004H44.0437V9.82453C44.0437 8.07773 42.5705 6.62207 40.7063 6.62207Z" fill="#FFD550"/>
<path d="M7.7611 1.77036C9.43026 1.77036 10.8044 3.12898 10.8044 4.77874C10.8044 6.42849 9.43026 7.78711 7.7611 7.78711C6.09291 7.78711 4.71875 6.42849 4.71875 4.77874C4.71875 3.12898 5.99489 1.77036 7.7611 1.77036Z" fill="#747371"/>
<path d="M52.463 5.46224C53.8372 5.46224 54.9173 6.52973 54.9173 7.88835C54.9173 9.24697 53.8372 10.3145 52.463 10.3145C51.0889 10.3145 50.0078 9.24697 50.0078 7.88835C50.0078 6.52973 51.0889 5.46224 52.463 5.46224Z" fill="#747371"/>
<path d="M48.4561 2.15214C48.6521 2.34622 48.8491 2.63736 48.8491 3.02553C48.8491 3.41371 48.7511 3.70484 48.4561 3.89893C48.1621 4.09302 47.9651 4.28711 47.573 4.28711C46.8859 4.28711 46.2969 3.70484 46.2969 3.02553C46.2969 2.7344 46.3949 2.34622 46.6889 2.15214C46.8859 1.95805 47.18 1.76396 47.573 1.76396C47.9651 1.76396 48.2601 1.95805 48.4561 2.15214Z" fill="black"/>
<path d="M21.8594 33.3083H39.0391V35.7344H21.8594V33.3083Z" fill="black"/>
<path d="M36.5859 26.0368H39.0402V28.4629H36.5859V26.0368Z" fill="black"/>
<path d="M21.8594 26.0368H35.4068V28.4629H21.8594V26.0368Z" fill="black"/>
<path d="M24.4141 29.7243H33.0529V32.1504H24.4141V29.7243Z" fill="black"/>
<path d="M24.4141 9.05046H26.8683V11.4766H24.4141V9.05046Z" fill="black"/>
<path d="M20.6953 9.05046H23.1495V11.4766H20.6953V9.05046Z" fill="black"/>
<path d="M12.8633 9.44315C13.0594 9.63724 13.2554 9.92837 13.2554 10.3165C13.2554 10.6077 13.1574 10.9959 12.8633 11.1899C12.5683 11.384 12.3723 11.5781 11.9793 11.5781C11.2922 11.5781 10.7031 10.9959 10.7031 10.3165C10.7031 10.0254 10.8011 9.63724 11.0962 9.44315C11.3902 9.24906 11.5872 9.05497 11.9793 9.05497C12.3723 9.05497 12.6663 9.24906 12.8633 9.44315Z" fill="black"/>
<path d="M3.65126 49.1297C3.84729 50.0031 4.33832 50.6824 4.92738 51.3618C5.81048 52.2352 7.0866 52.8174 8.36274 52.8174H52.5392C54.7965 52.8174 56.7597 51.2647 57.2507 49.1297H37.3227L36.4396 50.8765C36.2436 51.2647 35.8496 51.5558 35.3595 51.5558H25.5425C25.0524 51.5558 24.6594 51.2647 24.4624 50.8765L23.5793 49.1297H3.65126ZM52.5392 55.1465H8.36274C6.39953 55.1465 4.53435 54.3701 3.16021 53.0115C1.78509 51.6529 1 49.809 1 47.8682C1 47.1889 1.58905 46.6066 2.27612 46.6066H24.3644C24.8554 46.6066 25.2484 46.8977 25.4445 47.2859L26.3276 49.0327H34.6724L35.5565 47.2859C35.7525 46.8977 36.1446 46.6066 36.6356 46.6066H58.7239C59.4109 46.6066 60 47.1889 60 47.8682C59.902 51.944 56.5637 55.1465 52.5392 55.1465Z" fill="black"/>
<path d="M54.9839 49.1367C54.2968 49.1367 53.7077 48.5545 53.7077 47.8751V18.5678C53.7077 17.4032 52.7257 16.3358 51.4495 16.3358H43.7927C43.1057 16.3358 42.5156 15.7535 42.5156 15.0742C42.5156 14.3949 43.1057 13.8126 43.7927 13.8126H51.4495C54.0018 13.8126 56.162 15.8505 56.162 18.4707V47.8751C56.259 48.5545 55.6709 49.1367 54.9839 49.1367Z" fill="black"/>
<path d="M5.92458 49.1367C5.23751 49.1367 4.64844 48.5545 4.64844 47.8751V18.5678C4.64844 16.0446 6.71063 13.9097 9.36092 13.9097H17.0177C17.7048 13.9097 18.2938 14.4919 18.2938 15.1712C18.2938 15.8505 17.7048 16.4328 17.0177 16.4328H9.36092C8.1828 16.4328 7.10269 17.4032 7.10269 18.6648V48.0692C7.20071 48.5545 6.61166 49.1367 5.92458 49.1367Z" fill="black"/>
<path d="M50.0457 49.1367C49.3587 49.1367 48.7706 48.5545 48.7706 47.8751V21.188H43.8611C43.174 21.188 42.5859 20.6057 42.5859 19.9264C42.5859 19.2471 43.174 18.6648 43.8611 18.6648H50.0457C50.7328 18.6648 51.3228 19.2471 51.3228 19.9264V47.8751C51.3228 48.5545 50.7328 49.1367 50.0457 49.1367Z" fill="black"/>
<path d="M10.8855 49.1367C10.1984 49.1367 9.60938 48.5545 9.60938 47.8751V20.0234C9.60938 19.3441 10.1984 18.7619 10.8855 18.7619H17.0701C17.7572 18.7619 18.3463 19.3441 18.3463 20.0234C18.3463 20.7028 17.7572 21.285 17.0701 21.285H12.1616V47.9722C12.1616 48.5545 11.5726 49.1367 10.8855 49.1367Z" fill="black"/>
<path d="M20.2499 7.8825C19.1707 7.8825 18.1886 8.7559 18.1886 9.92043V34.9578C18.1886 36.0253 19.0727 36.9958 20.2499 36.9958H40.6699C41.749 36.9958 42.7311 36.1224 42.7311 34.9578V9.92043C42.7311 8.85294 41.8471 7.8825 40.6699 7.8825H20.2499ZM40.6699 39.4219H20.2499C17.7966 39.4219 15.7344 37.3839 15.7344 34.9578V9.92043C15.7344 7.49432 17.7966 5.45639 20.2499 5.45639H40.6699C43.1242 5.45639 45.1854 7.49432 45.1854 9.92043V34.9578C45.1854 37.3839 43.1242 39.4219 40.6699 39.4219Z" fill="black"/>
<path d="M44.0073 15.1641H17.0105C16.3234 15.1641 15.7344 14.5818 15.7344 13.9025C15.7344 13.2232 16.3234 12.6409 17.0105 12.6409H44.0073C44.6944 12.6409 45.2834 13.2232 45.2834 13.9025C45.1854 14.5818 44.5954 15.1641 44.0073 15.1641Z" fill="black"/>
<path d="M35.3845 23.6133C35.0904 23.6133 34.7954 23.5162 34.5004 23.2251C34.0103 22.7399 34.0103 21.9635 34.5004 21.4783L36.0715 19.9256L34.5004 18.3729C34.0103 17.8877 34.0103 17.1113 34.5004 16.6261C34.9914 16.1409 35.7775 16.1409 36.2685 16.6261L38.7218 19.0522C39.2128 19.5374 39.2128 20.3138 38.7218 20.799L36.2685 23.2251C35.9735 23.5162 35.6785 23.6133 35.3845 23.6133Z" fill="black"/>
<path d="M25.5106 23.6133C25.2165 23.6133 24.9215 23.5162 24.6275 23.2251L22.1722 20.799C21.6822 20.3138 21.6822 19.5374 22.1722 19.0522L24.6275 16.6261C25.1185 16.1409 25.9036 16.1409 26.3946 16.6261C26.8847 17.1113 26.8847 17.8877 26.3946 18.3729L24.8235 19.9256L26.3946 21.4783C26.8847 21.9635 26.8847 22.7399 26.3946 23.2251C26.0996 23.5162 25.8056 23.6133 25.5106 23.6133Z" fill="black"/>
<path d="M29.1298 23.6133C28.9328 23.6133 28.7368 23.6133 28.5408 23.5162C27.9517 23.2251 27.6567 22.4488 27.9517 21.8665L30.4059 17.0143C30.701 16.432 31.486 16.1409 32.0751 16.432C32.6642 16.7231 32.9582 17.4995 32.6642 18.0818L30.2099 22.934C30.0129 23.4192 29.6209 23.6133 29.1298 23.6133Z" fill="black"/>
<path d="M52.582 6.62435C51.8949 6.62435 51.3048 7.20662 51.3048 7.88593C51.3048 8.56524 51.8949 9.1475 52.582 9.1475C53.269 9.1475 53.8581 8.56524 53.8581 7.88593C53.8581 7.20662 53.269 6.62435 52.582 6.62435ZM52.582 11.4766C50.5207 11.4766 48.8516 9.82681 48.8516 7.78888C48.8516 5.75095 50.5207 4.1012 52.582 4.1012C54.6432 4.1012 56.3114 5.75095 56.3114 7.78888C56.3114 9.82681 54.6432 11.4766 52.582 11.4766Z" fill="black"/>
<path d="M7.72569 3.03404C6.74457 3.03404 5.8605 3.81039 5.8605 4.87788C5.8605 5.94536 6.64656 6.72172 7.72569 6.72172C8.80579 6.72172 9.59088 5.94536 9.59088 4.87788C9.59088 3.81039 8.70778 3.03404 7.72569 3.03404ZM7.72569 9.05078C5.37043 9.05078 3.40625 7.1099 3.40625 4.78083C3.40625 2.45177 5.37043 0.510884 7.72569 0.510884C10.0819 0.510884 12.0451 2.45177 12.0451 4.78083C12.0451 7.1099 10.0819 9.05078 7.72569 9.05078Z" fill="black"/>
</svg>
