<svg width="73" height="73" viewBox="0 0 73 73" fill="none" xmlns="http://www.w3.org/2000/svg">
<circle cx="36.4252" cy="36.5004" r="36.4252" fill="url(#paint0_linear_1027_2265)"/>
<path d="M34.2716 25.8252C34.7727 25.8252 35.2021 26.0041 35.56 26.362C35.8463 26.7199 35.9895 27.1494 35.9895 27.6504C35.9895 28.223 35.8821 28.7957 35.6674 29.3683L29.977 44.0774C29.6191 44.7932 29.2612 45.3658 28.9033 45.7953C28.4738 46.2963 27.7939 46.5468 26.8634 46.5468L23.3203 46.5468C22.7477 46.5468 22.3182 46.3321 22.0319 45.9026C21.674 45.4732 21.5666 44.9005 21.7098 44.1848L24.0718 28.9388C24.1434 28.0799 24.4297 27.3283 24.9308 26.6841C25.4318 26.1115 26.1834 25.8252 27.1855 25.8252L34.2716 25.8252ZM51.4502 25.8252C51.9512 25.8252 52.3807 26.0041 52.7386 26.362C53.0249 26.7199 53.168 27.1494 53.168 27.6504C53.168 28.223 53.0607 28.7957 52.8459 29.3683L47.1555 44.0774C46.7976 44.7932 46.404 45.3658 45.9745 45.7953C45.545 46.2963 44.9008 46.5468 44.0419 46.5468H40.4988C39.9262 46.5468 39.4968 46.3321 39.2104 45.9026C38.8526 45.4732 38.7452 44.9006 38.8883 44.1848L41.2504 28.9388C41.322 28.0799 41.6083 27.3283 42.1093 26.6841C42.6104 26.1115 43.3261 25.8252 44.2566 25.8252L51.4502 25.8252Z" fill="#091242"/>
<defs>
<linearGradient id="paint0_linear_1027_2265" x1="-2.06535" y1="15.8594" x2="89.5811" y2="22.3677" gradientUnits="userSpaceOnUse">
<stop stop-color="#FFB629"/>
<stop offset="0.507189" stop-color="#FFDA56"/>
<stop offset="1" stop-color="#FFD7A6"/>
</linearGradient>
</defs>
</svg>
